<?xml version="1.0" standalone="no"?><!DOCTYPE svg PUBLIC "-//W3C//DTD SVG 1.1//EN" "http://www.w3.org/Graphics/SVG/1.1/DTD/svg11.dtd"><svg t="1497344692740" class="icon" style="" viewBox="0 0 1024 1024" version="1.1" xmlns="http://www.w3.org/2000/svg" p-id="5463" xmlns:xlink="http://www.w3.org/1999/xlink" width="200" height="200"><defs><style type="text/css"></style></defs><path d="M701.827194 828.824814 1024 828.824814l-4.00952-30.747516c-17.378518-113.628622-88.229098-212.553704-188.490687-266.025766 49.462541-45.451056 80.208092-110.955608 80.208092-181.806188 0-137.691639-110.955608-248.647248-248.647248-248.647248-85.556084 0-163.091163 42.778042-208.544184 113.628622-29.41101-12.030526-60.15656-18.715025-93.57709-18.715025-137.691639 0-248.647248 110.955608-248.647248 248.647248 0 72.187086 30.747516 136.355132 78.871585 181.806188C90.904077 680.439155 21.388038 778.025766 4.00952 891.656353L0 922.401904l721.880691 0-4.00952-30.747516C713.859685 870.266349 708.511693 848.878311 701.827194 828.824814zM663.060637 155.070157c106.946088 0 195.175186 86.892591 195.175186 195.175186 0 66.84106-34.757036 126.99762-85.556084 161.754656l-1.336507 1.336507c-2.673013 1.336507-4.00952 2.673013-6.684499 4.00952-10.694019 6.684499-21.388038 10.694019-32.084023 16.042012-1.336507 1.336507-4.00952 1.336507-5.347992 1.336507-2.673013 1.336507-6.684499 2.673013-9.357512 2.673013-4.00952 1.336507-6.684499 1.336507-10.694019 2.673013-2.673013 0-5.347992 1.336507-8.021006 1.336507-4.00952 1.336507-8.021006 1.336507-12.032491 1.336507-1.336507 0-4.00952 0-5.347992 0-5.347992 0-12.030526 1.336507-17.378518 1.336507-6.684499 0-14.705505 0-21.390004-1.336507-2.673013 0-5.347992 0-6.684499-1.336507-5.347992-1.336507-9.357512-1.336507-14.705505-2.673013-2.673013 0-4.00952-1.336507-6.684499-1.336507-6.684499-1.336507-13.368998-4.00952-20.051532-6.684499 0-1.336507 1.336507-4.00952 1.336507-5.347992 1.336507-4.00952 2.673013-8.021006 4.00952-13.368998 1.336507-4.00952 2.673013-8.021006 2.673013-12.030526 1.336507-2.673013 1.336507-6.684499 2.673013-9.357512 17.378518 8.021006 37.43005 13.368998 58.820054 13.368998 57.483547 0 106.946088-36.093543 126.99762-86.892591l-181.806188 0 0-1.336507c-1.336507-6.684499-1.336507-14.705505-2.673013-21.390004 0-1.336507 0-2.673013-1.336507-4.00952-1.336507-6.684499-2.673013-13.368998-5.347992-20.051532 0 0 0 0 0-1.336507-2.673013-6.684499-5.347992-14.705505-8.021006-21.390004 0-1.336507-1.336507-1.336507-1.336507-2.673013-16.042012-36.093543-38.768522-68.177566-69.514073-93.57709 0 0 0 0-1.336507 0-5.347992-4.00952-10.694019-9.357512-17.378518-13.368998C537.399524 187.15418 597.556084 155.070157 663.060637 155.070157zM165.764177 445.15894c0-106.946088 86.892591-195.175186 195.175186-195.175186 33.42053 0 65.504553 8.021006 92.240583 24.063017 0 0 0 0 1.336507 0 5.347992 2.673013 9.357512 5.347992 13.368998 8.021006 1.336507 0 1.336507 1.336507 2.673013 1.336507 9.357512 6.684499 18.715025 14.705505 28.072537 22.726511l0 0c13.368998 13.368998 24.063017 28.072537 33.42053 44.114549l1.336507 1.336507c2.673013 5.347992 5.347992 10.694019 8.021006 16.042012 0 0 0 0 0 1.336507 2.673013 5.347992 4.00952 9.357512 5.347992 14.705505 0 1.336507 1.336507 2.673013 1.336507 4.00952 1.336507 5.347992 2.673013 10.694019 4.00952 16.042012l0 1.336507c1.336507 5.347992 1.336507 10.694019 2.673013 16.042012 0 1.336507 0 2.673013 0 4.00952 0 5.347992 1.336507 12.030526 1.336507 17.378518 0 6.684499 0 14.705505-1.336507 21.390004 0 2.673013 0 4.00952-1.336507 6.684499-1.336507 5.347992-1.336507 10.694019-2.673013 14.705505 0 2.673013-1.336507 4.00952-1.336507 6.684499-1.336507 5.347992-2.673013 10.694019-5.347992 16.042012 0 1.336507-1.336507 2.673013-1.336507 4.00952-2.673013 6.684499-5.347992 12.030526-8.021006 18.715025l0 1.336507c-1.336507 2.673013-2.673013 6.684499-5.347992 9.357512-1.336507 1.336507-1.336507 2.673013-2.673013 5.347992-4.00952 5.347992-6.684499 10.694019-10.694019 16.042012 0 1.336507-1.336507 1.336507-1.336507 2.673013-2.673013 2.673013-4.00952 5.347992-6.684499 8.021006-1.336507 1.336507-2.673013 2.673013-4.00952 4.00952-2.673013 2.673013-4.00952 5.347992-6.684499 6.684499-1.336507 1.336507-2.673013 2.673013-4.00952 2.673013-4.00952 4.00952-9.357512 8.021006-14.705505 12.030526-1.336507 1.336507-2.673013 2.673013-4.00952 2.673013-2.673013 1.336507-5.347992 4.00952-8.021006 5.347992-1.336507 1.336507-2.673013 1.336507-2.673013 1.336507-6.684499 4.00952-13.368998 8.021006-20.051532 10.694019-1.336507 0-1.336507 1.336507-2.673013 1.336507-2.673013 1.336507-6.684499 2.673013-9.357512 4.00952s-4.00952 1.336507-6.684499 2.673013c-2.673013 1.336507-5.347992 1.336507-8.021006 2.673013l-1.336507 0c-4.00952 1.336507-6.684499 1.336507-10.694019 2.673013-2.673013 0-4.00952 1.336507-6.684499 1.336507l0 0-1.336507 0c-4.00952 1.336507-8.021006 1.336507-12.030526 1.336507-1.336507 0-4.00952 0-5.347992 0-5.347992 0-12.030526 1.336507-17.378518 1.336507s-12.030526 0-17.378518-1.336507c-1.336507 0-4.00952 0-5.347992 0-4.00952 0-8.021006-1.336507-12.030526-1.336507-1.336507 0-4.00952 0-5.347992-1.336507-5.347992-1.336507-9.357512-2.673013-14.705505-4.00952-2.673013-1.336507-5.347992-1.336507-8.021006-2.673013-2.673013-1.336507-4.00952-1.336507-6.684499-2.673013-2.673013-1.336507-6.684499-2.673013-9.357512-4.00952-1.336507 0-2.673013-1.336507-2.673013-1.336507-6.684499-2.673013-13.368998-6.684499-18.715025-10.694019-1.336507-1.336507-4.00952-2.673013-5.347992-2.673013l-2.673013-1.336507C199.184706 570.820054 165.764177 512 165.764177 445.15894zM62.829574 868.929843c24.063017-92.240583 88.229098-168.439155 176.460161-207.205712 2.673013 1.336507 5.347992 2.673013 9.357512 4.00952 2.673013 1.336507 6.684499 2.673013 9.357512 4.00952s6.684499 2.673013 9.357512 4.00952c5.347992 2.673013 10.694019 4.00952 16.042012 6.684499 2.673013 1.336507 5.347992 1.336507 8.021006 2.673013 4.00952 1.336507 9.357512 2.673013 13.368998 4.00952 2.673013 0 4.00952 1.336507 6.684499 1.336507 6.684499 1.336507 13.368998 2.673013 20.051532 2.673013 1.336507 0 4.00952 0 5.347992 0 8.021006 1.336507 14.705505 1.336507 22.726511 1.336507s14.705505 0 22.726511-1.336507c1.336507 0 4.00952 0 5.347992 0 4.00952 0 8.021006-1.336507 13.368998-1.336507l0 0 0 0c2.673013 0 4.00952-1.336507 6.684499-1.336507s4.00952-1.336507 6.684499-1.336507c1.336507 0 1.336507 0 2.673013 0l0 0c2.673013-1.336507 6.684499-1.336507 9.357512-2.673013l1.336507 0c1.336507 0 2.673013 0 2.673013-1.336507 2.673013 0 4.00952-1.336507 6.684499-1.336507 2.673013-1.336507 5.347992-1.336507 8.021006-2.673013l0 0 2.673013-1.336507 0 0c2.673013-1.336507 4.00952-1.336507 6.684499-2.673013 2.673013-1.336507 6.684499-2.673013 9.357512-4.00952s5.347992-2.673013 9.357512-4.00952c2.673013-1.336507 5.347992-2.673013 9.357512-4.00952 68.177566 29.41101 124.324607 82.883071 156.406664 151.060637l4.00952 8.021006c6.684499 14.705505 12.030526 30.747516 16.042012 46.789528L62.829574 868.929843 62.829574 868.929843zM651.028146 731.238203l-1.336507-1.336507c-4.00952-5.347992-9.357512-12.032491-13.368998-17.378518-1.336507-1.336507-2.673013-2.673013-4.00952-4.00952-4.00952-4.00952-8.021006-9.357512-12.030526-13.368998-1.336507-1.336507-4.00952-4.00952-5.347992-5.347992-4.00952-4.00952-8.021006-8.021006-12.030526-10.694019-2.673013-2.673013-4.00952-4.00952-6.684499-6.684499-4.00952-4.00952-8.021006-6.684499-12.030526-9.357512-2.673013-2.673013-5.347992-4.00952-8.021006-6.684499-5.347992-4.00952-10.694019-8.021006-16.042012-10.694019-2.673013-2.673013-6.684499-4.00952-9.357512-5.347992-5.347992-4.00952-10.694019-6.684499-17.378518-9.357512 0 0-1.336507 0-1.336507-1.336507 1.336507-1.336507 1.336507-1.336507 2.673013-2.673013 2.673013-2.673013 4.00952-4.00952 6.684499-6.684499 4.00952-4.00952 8.021006-8.021006 10.694019-12.030526 2.673013-2.673013 4.00952-5.347992 6.684499-8.021006 2.673013-2.673013 5.347992-6.684499 6.684499-9.357512 1.336507-2.673013 4.00952-5.347992 5.347992-8.021006 0 0 0 0 0-1.336507 29.41101 12.030526 61.493067 18.715025 93.57709 18.715025 28.072537 0 56.145075-5.347992 81.546564-13.368998l1.336507 0c6.684499-2.673013 14.705505-5.347992 21.388038-8.021006 2.673013-1.336507 5.347992-2.673013 8.021006-4.00952s5.347992-2.673013 8.021006-4.00952c88.229098 37.43005 155.070157 114.965129 177.796668 207.205712L680.43719 778.027731C671.081643 759.310741 660.385658 744.605236 651.028146 731.238203z" fill="#1296db" p-id="5464"></path><path d="M362.275869 601.565605c57.483547 0 106.946088-36.093543 126.99762-86.892591l-253.99524 0C255.331747 565.472061 304.794288 601.565605 362.275869 601.565605z" fill="#1296db" p-id="5465"></path></svg>