<?xml version="1.0" standalone="no"?><!DOCTYPE svg PUBLIC "-//W3C//DTD SVG 1.1//EN" "http://www.w3.org/Graphics/SVG/1.1/DTD/svg11.dtd"><svg t="1497344272284" class="icon" style="" viewBox="0 0 1024 1024" version="1.1" xmlns="http://www.w3.org/2000/svg" p-id="3987" xmlns:xlink="http://www.w3.org/1999/xlink" width="200" height="200"><defs><style type="text/css"></style></defs><path d="M78.154 33.587l80.564 870.753 351.392 95.882 357.451-97.805 78.285-870.02-867.692 1.19z m758.218 842.759l-326.261 89.268-320.284-87.393-75.074-811.309 794.588-1.093-72.969 810.527z" fill="#1296db" p-id="3988"></path><path d="M477.643 241.892h-95.791v306.84c0 75.923-21.592 97.124-59.168 97.124-17.607 0-33.464-3.64-45.8-8.755l-9.983 89.825c17.601 7.309 44.611 11.688 65.746 11.688 86.269 0 144.997-48.904 144.997-189.129V241.892m171.538 0.48c-90.453 0-147.708 61.972-147.708 143.881 0 70.542 44.094 114.709 108.202 143.195 46.369 19.942 64.699 37.76 64.699 66.957 0 32.053-21.188 52.718-61.26 52.718-37.215 0-70.998-14.99-93.898-29.943v-0.028L501.475 708.2c21.771 14.981 62.418 29.938 106.481 29.938 105.92-0.005 155.146-68.388 155.146-148.875 0-68.384-31.484-112.54-99.603-143.898-50.385-24.212-71.561-37.74-71.561-68.371 0-24.226 18.325-46.295 56.113-46.295 37.193 0 62.771 15.082 77.677 24.352l22.335-90.142c-23.36-12.369-54.819-22.538-98.881-22.537m0 0z" fill="#1296db" p-id="3989"></path></svg>