<?xml version="1.0" standalone="no"?><!DOCTYPE svg PUBLIC "-//W3C//DTD SVG 1.1//EN" "http://www.w3.org/Graphics/SVG/1.1/DTD/svg11.dtd"><svg t="1497344700921" class="icon" style="" viewBox="0 0 1024 1024" version="1.1" xmlns="http://www.w3.org/2000/svg" p-id="5713" xmlns:xlink="http://www.w3.org/1999/xlink" width="200" height="200"><defs><style type="text/css"></style></defs><path d="M766.560256 1023.670272l-510.1568 0c-35.247104 0-63.7696-28.55424-63.7696-63.768576L192.633856 67.126272c0-35.216384 28.522496-63.73888 63.7696-63.73888l510.1568 0c35.185664 0 63.768576 28.522496 63.768576 63.73888l0 892.775424C830.329856 995.116032 801.746944 1023.670272 766.560256 1023.670272L766.560256 1023.670272zM511.481856 991.78496c17.624064 0 31.884288-14.260224 31.884288-31.884288 0-17.593344-14.260224-31.885312-31.884288-31.885312-17.62304 0-31.884288 14.291968-31.884288 31.885312C479.596544 977.524736 493.858816 991.78496 511.481856 991.78496L511.481856 991.78496zM654.963712 67.126272 368 67.126272c-8.843264 0-15.941632 7.099392-15.941632 15.942656 0 8.7808 7.098368 15.942656 15.941632 15.942656L654.963712 99.011584c8.7808 0 15.942656-7.161856 15.942656-15.942656C670.906368 74.225664 663.744512 67.126272 654.963712 67.126272L654.963712 67.126272zM766.560256 162.781184l-510.1568 0 0 733.350912 510.1568 0L766.560256 162.781184 766.560256 162.781184z" fill="#1296db" p-id="5714"></path></svg>