<?xml version="1.0" standalone="no"?><!DOCTYPE svg PUBLIC "-//W3C//DTD SVG 1.1//EN" "http://www.w3.org/Graphics/SVG/1.1/DTD/svg11.dtd"><svg t="1497344652614" class="icon" style="" viewBox="0 0 1126 1024" version="1.1" xmlns="http://www.w3.org/2000/svg" p-id="5092" xmlns:xlink="http://www.w3.org/1999/xlink" width="219.921875" height="200"><defs><style type="text/css"></style></defs><path d="M934.468267 476.945067l-16.725334-4.096c1.194667 12.9024 1.979733 25.941333 1.979734 39.150933 0 227.089067-183.9104 411.818667-410.0096 411.818667C283.648 923.818667 99.7376 739.089067 99.7376 512c0-227.1232 183.9104-411.8528 409.975467-411.8528 68.7104 0 133.4272 17.271467 190.327466 47.377067l1.8432-13.380267 79.872-54.613333A504.661333 504.661333 0 0 0 509.678933 0C228.215467 0 0 229.205333 0 512s228.215467 512 509.713067 512c281.531733 0 509.7472-229.205333 509.7472-512 0-29.969067-3.072-59.1872-7.9872-87.722667l-77.0048 52.667734zM509.713067 322.730667c11.741867 0 23.210667 1.262933 34.372266 3.310933l101.888-69.085867a285.969067 285.969067 0 0 0-136.260266-34.372266c-159.095467 0-288.085333 129.536-288.085334 289.416533 0 159.8464 128.989867 289.3824 288.085334 289.3824 159.1296 0 288.1536-129.536 288.1536-289.3824a292.864 292.864 0 0 0-1.3312-26.112l-103.799467 70.314667c-19.933867 83.0464-94.3104 144.9984-183.022933 144.9984-103.867733 0-188.381867-84.855467-188.381867-189.201067 0-104.379733 84.514133-189.269333 188.416-189.269333z m238.592-159.744l-12.6976 93.696-272.725334 184.797866a87.313067 87.313067 0 0 0-22.801066 120.9344 86.4256 86.4256 0 0 0 120.4224 22.9376l272.725333-184.763733 91.477333 22.4256 186.606934-127.658667a34.747733 34.747733 0 0 0-12.731734-62.702933l-101.4784-20.206933a34.679467 34.679467 0 0 1-27.2384-40.174934l18.397867-102.229333a34.7136 34.7136 0 0 0-15.189333-35.2256 34.338133 34.338133 0 0 0-38.229334 0.443733l-186.538666 127.6928z" fill="#1296db" p-id="5093"></path></svg>