<?xml version="1.0" standalone="no"?><!DOCTYPE svg PUBLIC "-//W3C//DTD SVG 1.1//EN" "http://www.w3.org/Graphics/SVG/1.1/DTD/svg11.dtd"><svg t="1497344686910" class="icon" style="" viewBox="0 0 1024 1024" version="1.1" xmlns="http://www.w3.org/2000/svg" p-id="5340" xmlns:xlink="http://www.w3.org/1999/xlink" width="200" height="200"><defs><style type="text/css"></style></defs><path d="M886.833479 315.707358 629.322567 315.707358l0 41.336454 257.510912 0L886.833479 315.707358zM629.322567 483.910245l257.510912 0 0-41.336454L629.322567 442.573791 629.322567 483.910245zM427.549098 578.237587c65.933665-35.709293 110.88546-106.023732 110.88546-186.797383 0-116.762307-94.001931-211.733309-209.53934-211.733309s-209.53934 94.971002-209.53934 211.733309c0 80.774675 44.953841 151.09116 110.887506 186.798407C105.646644 620.125603 15.555789 739.084948 15.555789 878.897228l40.876989 0c0-151.872966 122.221646-275.422863 272.461415-275.422863 150.289911 0 272.51258 123.549897 272.51258 275.422863l40.876989 0C642.284787 739.083925 552.160163 620.123556 427.549098 578.237587zM160.284031 391.43918c0-93.950765 75.629491-170.44802 168.611186-170.44802s168.662351 76.497255 168.662351 170.44802c0 94.001931-75.680657 170.442904-168.662351 170.442904S160.284031 485.441111 160.284031 391.43918zM507.712859 147.300834l0 97.267301 40.928155 0 0-55.93187 418.924161 0 0 424.585091L807.935548 613.221356l-91.041506 111.913882 15.667841-110.842481-150.137439 0.306992 0.050142 41.336454 102.933347-0.203638L655.859967 865.37219l171.418115-210.865545 181.165106 0L1008.443188 147.300834 507.712859 147.300834z" fill="#1296db" p-id="5341"></path></svg>