<?xml version="1.0" standalone="no"?><!DOCTYPE svg PUBLIC "-//W3C//DTD SVG 1.1//EN" "http://www.w3.org/Graphics/SVG/1.1/DTD/svg11.dtd"><svg t="1497344178935" class="icon" style="" viewBox="0 0 1024 1024" version="1.1" xmlns="http://www.w3.org/2000/svg" p-id="2583" xmlns:xlink="http://www.w3.org/1999/xlink" width="200" height="200"><defs><style type="text/css"></style></defs><path d="M813.924328 451.572336c1.912618-31.889932 0.805798-54.275137-0.805797-60.0734-7.802006-28.079031-24.090998-21.877358-24.090998-28.079031 0-161.7104-121.608908-292.787176-271.610156-292.787176-150.01763 0-271.61118 131.077799-271.611179 292.787176 0 12.83645-11.388676 3.347081-20.743917 28.079031-4.19793 11.050794 1.944358 18.021406 0 60.0734-0.522182 11.310861-49.283696 62.490793-68.650487 115.6458-19.185563 52.719855-21.815925 107.830483 7.831699 129.484633 15.329611 11.224855 30.125778-8.522821 41.317868-28.26333 10.444654-18.366455 17.752124-36.739053 19.499896-30.177996a203.630313 203.630313 0 0 0 5.889389 18.498536c9.489369 25.553106 25.416929 53.818484 48.505543 80.261347 4.692466 5.372326-28.57152 15.256915-48.505543 49.148543-19.935047 33.905963 5.721471 95.579695 104.87043 95.579695 127.887373 0 156.474251-44.974163 159.07492-44.77041 9.53442 0.703409 10.208137 0 20.292383 0 12.346009 0 7.232726 0.970643 18.708433 0 2.854592-0.270306 17.797175 11.322124 41.589198 22.892028 27.436031 13.354536 66.708177 26.727503 112.853664 21.877358 146.62345-15.419713 124.193194-64.554946 112.689843-95.579695-12.003008-32.367063-54.500392-47.527733-52.617467-49.595981 35.131553-38.814469 40.676916-62.656662 52.617467-98.312445 2.36108-7.06788 11.55045 11.53714 23.339466 30.141136 12.629625 19.879757 28.243877 39.778969 41.79807 28.30019 10.908474-9.247732 32.726447-47.785752 10.908475-129.484633-21.846641-81.701953-64.063481-100.328475-63.1512-115.644776z" fill="#68A5E1" p-id="2584"></path></svg>