<?xml version="1.0" standalone="no"?><!DOCTYPE svg PUBLIC "-//W3C//DTD SVG 1.1//EN" "http://www.w3.org/Graphics/SVG/1.1/DTD/svg11.dtd"><svg t="1497424106974" class="icon" style="" viewBox="0 0 1024 1024" version="1.1" xmlns="http://www.w3.org/2000/svg" p-id="3095" xmlns:xlink="http://www.w3.org/1999/xlink" width="200" height="200"><defs><style type="text/css"></style></defs><path d="M958.766 503.558c-0.512-61.09-77.054-113.38-195.243-143.464 5.424-20.773 9.824-41.034 12.791-60.374 14.224-91.789-1.535-155.642-44.41-179.586-52.597-29.471-134.562 9.925-218.062 95.37-14.02-14.122-28.038-27.322-42.057-38.988-71.425-59.452-134.255-78.69-176.926-54.336-42.67 24.457-57.815 88.412-42.67 180.098 3.274 19.75 7.98 40.317 13.711 61.5-21.182 5.73-41.443 11.972-60.066 19.135-86.877 33.154-134.46 78.383-134.05 127.603 0.409 49.118 48.708 93.733 135.994 125.455 18.419 6.753 38.373 12.586 59.248 17.907-5.424 20.773-9.824 41.136-12.893 60.476-14.224 91.789 1.534 155.642 44.41 179.689 11.87 6.651 25.275 9.926 39.908 9.926 38.27 0 85.24-22.41 136.506-66.002 13.917-11.768 27.833-25.173 41.75-39.396 14.02 14.12 28.038 27.321 42.057 38.987 51.267 42.67 98.03 64.569 136.2 64.569 15.041 0 28.651-3.377 40.726-10.335 53.21-30.494 60.988-123.306 28.959-241.598 118.394-31.824 194.628-85.444 194.117-146.636zM717.885 145.204c31.21 17.396 42.159 72.141 29.982 150.116-2.865 18.623-7.163 38.168-12.382 58.225-37.554-7.982-78.69-13.917-122.385-17.294-25.582-36.838-52.392-70.607-79.713-100.18 61.499-63.34 118.803-97.11 158.506-97.11 9.824 0 18.522 2.047 25.992 6.243z m-75.621 432.849a1112.195 1112.195 0 0 1-43.08 70.811c-26.4 2.15-53.927 3.377-82.682 3.582-28.345 0.204-56.178-0.614-83.397-2.456-15.247-22.512-29.88-46.15-44.001-70.71-13.61-23.842-26.196-47.684-37.657-71.527 11.256-23.842 23.535-47.89 36.94-71.834 14.02-25.07 28.448-48.606 42.978-70.709 26.913-2.149 54.644-3.377 82.784-3.684h9.619c25.48 0 50.038 0.819 73.676 2.354 15.247 22.512 29.982 46.252 44.104 70.81a1129.488 1129.488 0 0 1 37.657 71.426c-11.257 23.945-23.536 47.992-36.941 71.937z m52.494-38.27c13.815 31.414 25.276 61.499 34.28 89.946-28.651 6.446-59.964 11.768-93.528 15.554 10.95-17.294 21.592-34.894 31.824-53.211 9.824-17.396 18.829-34.792 27.424-52.29z m-178.153 216.73c-21.182-23.126-42.16-48.708-62.42-76.643 17.498 0.818 35.2 1.33 53.108 1.33h9.414c20.977-0.205 41.545-0.921 61.602-2.149a861.262 861.262 0 0 1-61.704 77.463zM396.778 646.92c-32.847-3.275-64.16-8.186-93.63-14.428 8.902-29.369 19.954-59.76 33.257-90.766 8.8 17.294 17.907 34.587 27.833 51.88 10.437 18.318 21.386 36.02 32.54 53.314z m-60.783-172.935c-13.405-30.494-24.66-60.374-33.768-89.435 29.163-6.549 60.169-11.87 92.607-15.656-10.744 17.089-21.284 34.69-31.517 53.006-9.721 17.396-18.726 34.792-27.322 52.085z m177.847-216.834c21.284 23.229 42.262 48.81 62.625 76.746a1137.69 1137.69 0 0 0-62.42-1.125c-20.978 0.205-41.546 1.023-61.91 2.353 20.467-29.06 41.24-55.155 61.705-77.974z m152.674 163.214c-10.54-18.42-21.591-36.224-32.848-53.518 33.769 3.377 65.184 8.186 93.938 14.224-8.903 29.47-20.056 59.964-33.257 91.072a1169.89 1169.89 0 0 0-27.833-51.778zM280.636 297.57c-12.894-77.77-2.456-132.618 28.55-150.423 7.674-4.4 16.679-6.549 26.707-6.549 30.698 0 71.834 20.057 117.473 58.02 13.507 11.256 27.22 24.15 40.727 37.862-26.708 29.573-53.314 63.648-78.998 101.51-42.67 3.99-83.398 10.437-121.157 19.033-5.525-20.568-10.13-40.42-13.302-59.453z m-62.83 311.283c-74.086-26.913-116.757-62.932-117.064-98.645-0.307-35.712 41.853-72.346 115.529-100.486 18.01-6.856 37.555-12.996 58.02-18.42 11.87 37.658 27.117 76.85 45.639 116.553-18.317 40.317-33.36 80.02-44.82 118.087-20.261-4.912-39.601-10.54-57.304-17.09z m238.63 207.112c-60.17 51.062-112.46 70.3-143.67 52.904s-42.159-72.141-29.982-150.116c2.866-18.726 7.163-38.27 12.485-58.429 38.066 8.084 79.1 14.019 122.18 17.396 25.582 36.838 52.29 70.402 79.509 99.975-13.508 13.814-27.015 26.81-40.522 38.27z m265.03 50.858c-31.005 17.805-83.5-1.024-144.18-51.472-13.61-11.256-27.22-24.149-40.83-37.861 27.015-29.982 53.518-64.058 78.793-101.203 43.592-4.093 84.524-10.642 121.873-19.135 29.88 108.673 22.41 187.875-15.656 209.67z m35.303-243.849c-11.665-37.247-26.912-76.644-45.843-117.064 18.317-40.42 33.36-80.123 44.923-118.393 108.877 27.321 173.855 72.448 174.265 116.245 0.204 43.796-64.365 90.15-173.345 119.212z" fill="#1296DB" p-id="3096"></path><path d="M441.087 507.037a74.29 74.29 0 1 0 148.58 0 74.29 74.29 0 1 0-148.58 0z" fill="#1296DB" p-id="3097"></path></svg>