<?xml version="1.0" standalone="no"?><!DOCTYPE svg PUBLIC "-//W3C//DTD SVG 1.1//EN" "http://www.w3.org/Graphics/SVG/1.1/DTD/svg11.dtd"><svg t="1497344085888" class="icon" style="" viewBox="0 0 1372 1024" version="1.1" xmlns="http://www.w3.org/2000/svg" p-id="2460" xmlns:xlink="http://www.w3.org/1999/xlink" width="267.96875" height="200"><defs><style type="text/css"></style></defs><path d="M1369.605007 725.586686c-4.767266-39.84385-25.279633-70.765477-56.244996-94.995436-35.863839-28.035025-77.850772-39.581432-122.593097-41.41836a276.72013 276.72013 0 0 0-106.585579 16.444882c-9.796951 3.542647-19.418957 7.741341-29.30338 11.721352-1.312092-2.405501-2.711656-4.679794-3.848802-7.085295-10.146842-20.731048-22.393031-40.543632-25.060951-64.292491-1.924401-16.882246-4.286166-33.764492-0.262418-50.428056 3.848802-16.051255 8.922223-31.840091 13.645753-47.7164 2.449238-8.178705 0.743519-12.727289-7.041558-16.401146a31.665145 31.665145 0 0 0-8.616069-2.842865 132.958621 132.958621 0 0 0-56.55115 4.198694c-6.560458 1.924401-11.327725 5.598258-12.771026 12.858498-0.830991 4.154957-2.536711 8.134968-3.673856 12.246189-4.854739 17.100928-8.266177 34.508011-16.094991 50.777947-19.637638 40.849787-41.986933 80.125064-64.948537 119.137922-2.492974 4.198693-5.073421 8.35365-8.222441 13.470808-8.047495-16.83851-16.619828-31.927564-19.244011-49.684538-2.930338-20.031266-5.248367-40.018796-0.262419-59.918852 3.717593-14.826636 8.572332-29.390853 13.033444-43.998807 2.143083-6.954086 1.137146-10.584206-5.160894-14.258063a30.440526 30.440526 0 0 0-10.365524-4.023747 127.010472 127.010472 0 0 0-58.519288 4.811002c-5.948149 1.924401-9.053432 5.773203-10.89036 11.896298-5.335839 18.063128-9.884424 36.563621-17.363347 53.752022a18787.228113 18787.228113 0 0 1-92.721143 207.879054c-6.516722 14.433008-14.126853 28.384916-21.474567 42.424297-1.880665 3.586384-4.548584 6.691667-6.866613 10.05937-1.880665-2.186819-2.580447-3.717593-2.580447-5.204631 0.043736-8.878487-1.005937-18.063128 0.699782-26.63546 5.117157-25.979415 11.02157-51.871357 17.275874-77.63209 5.117157-21.255885 11.109043-42.336824 16.838509-63.505236 1.924401-7.085295 1.968137-13.68949-3.14902-19.637638-8.528596-9.971897-26.373042-12.158716-36.957248-4.461112-1.137146 0.830991-2.492974 1.399564-4.679794 2.66792 0.393627-3.367702 0.612309-5.467049 0.918464-7.566396 2.230556-16.182464 2.66792-32.277455-1.749455-48.241236-5.554521-19.85632-19.681375-31.271518-40.281214-30.659209a86.598049 86.598049 0 0 0-28.559862 5.423313c-37.394612 14.65169-66.129419 40.587369-90.57806 71.81515a27.991289 27.991289 0 0 1-8.266178 7.129031c-31.621409 17.538292-63.374027 34.857902-95.082908 52.264984l-35.295266 19.331484c-9.44706-9.053432-18.063128-18.41302-27.860079-26.373042-29.828217-24.317432-60.137534-48.022555-90.140697-72.077569-26.591724-21.299621-52.396193-43.517707-72.121305-71.727677-14.695427-20.993466-24.142486-43.95507-25.017214-69.934485-1.137146-33.06471 8.222441-63.286554 25.06095-91.452789 21.56204-35.995048 50.909156-64.861064 83.230348-91.05916 34.158119-27.685134 71.115368-51.171575 109.428444-72.602405 53.577076-30.003163 108.728662-56.55115 167.816523-74.089443 60.618635-17.975656 122.06826-28.253707 185.486024-21.080939 24.929741 2.799129 49.115964 8.528596 71.377786 20.731048 17.013455 9.315851 30.965363 21.518303 37.482085 40.631105 6.385513 18.806647 6.210567 37.831976 1.749455 56.901042-9.009696 38.619231-30.178108 70.503058-56.813569 98.975447-43.648916 46.666727-96.919837 78.419345-156.926162 99.412811a430.497272 430.497272 0 0 1-106.760524 22.786659c-29.828217 2.492974-59.044125-0.131209-87.297832-10.54047a113.583401 113.583401 0 0 1-48.110027-32.671082c-2.361765-2.755392-5.335839-5.685731-9.709478-3.14902-4.286166 2.492974-5.029685 6.604195-3.586384 10.715415 2.405501 6.866613 4.592321 13.951908 8.35365 20.075002 9.359587 15.351472 23.049077 26.504251 38.094395 36.082521 28.909753 18.369283 61.187208 24.536114 94.689281 25.979415 50.821683 2.186819 100.418748-5.379576 149.272294-19.025329 69.803276-19.462693 130.465647-53.839494 179.144247-108.072617 40.543632-45.135953 69.453385-96.132582 75.663952-157.66968 3.017811-30.046899-0.174946-59.481488-14.258062-86.860468-15.264-29.697008-39.493959-50.165638-68.491185-65.342164C737.745402 11.721352 692.172085 3.017811 645.155467 0.4811h-47.10409a561.750174 561.750174 0 0 0-165.585967 34.201856c-40.499896 14.739163-80.256273 31.358991-118.831768 50.603002-84.017602 41.986933-162.262001 92.196307-226.510756 161.780901C55.10785 281.749815 27.991289 319.800473 12.421134 364.848953c-4.548584 13.208389-7.347713 27.204034-10.627942 40.849787-0.262418 1.137146 1.005937 2.230556-1.793192 3.367702v19.244011c2.799129 4.942212 3.105284 9.840687 4.373639 14.782899 8.266177 32.058773 25.279633 59.612698 46.360572 84.717385 30.046899 35.776366 66.391838 64.554909 104.092604 91.67147 32.671082 23.486441 65.823265 46.448045 98.625557 69.75954 5.641994 3.980011 10.846624 8.616069 16.969718 13.514544-5.248367 2.842865-9.665742 5.335839-14.214326 7.653868-43.299025 21.955667-84.936067 46.579254-123.336616 76.407471-23.13655 17.975656-45.52958 37.088457-61.318416 62.018199-25.410842 40.150005-34.420538 82.924193-15.482682 128.584982 5.554521 13.339599 13.995644 24.886005 25.891942 33.370864a37.744503 37.744503 0 0 0 12.683553 6.560459c11.546407 2.711656 23.355231 4.504848 35.076583 6.647931h33.152183a206.173336 206.173336 0 0 0 100.200066-36.651094c47.147827-32.539873 78.900445-76.145052 92.589935-132.171366 9.92816-40.674841 10.321788-81.437155-1.355828-121.937051-1.09341-3.761329-2.449238-7.435186-3.892539-11.065307s-3.105284-7.172768-5.073421-11.721352l75.182852-43.255288 1.137146 0.962201c-1.355828 4.461112-2.799129 8.922223-4.067484 13.470807-8.922223 32.627346-14.870372 65.823265-12.727289 99.67523 2.274292 36.082521 12.333662 69.847012 33.458337 100.02512 17.057192 24.404905 57.775769 25.279633 75.92637 0.830992a174.945554 174.945554 0 0 0 17.363347-27.466452c12.246189-25.323369 23.61765-51.084102 35.295265-76.669889l2.05561-4.679794c-0.830991 12.11498-1.836928 22.742922-2.274292 33.414601-0.699782 16.619828 0.262418 33.152183 5.948149 48.984755 4.854739 13.55828 13.120917 23.661386 28.647335 25.410842 10.584206 1.224619 19.069065-3.63012 26.854142-9.796951 12.202452-9.622005 22.086876-21.474567 29.43459-34.989111 20.774785-38.181867 42.118142-76.101316 60.968525-115.245384 20.381157-42.336824 38.181867-85.898267 57.119724-128.934873 1.049673-2.361765 1.968137-4.767266 3.14902-7.653868 4.461112 17.582028 7.610132 34.770429 13.339598 51.084102 6.647931 18.89412 14.914108 37.350876 23.923805 55.282795 4.24243 8.484859 3.761329 13.995644-2.143083 21.080939-24.667323 29.740744-48.897282 59.83138-73.170978 89.922015a198.650677 198.650677 0 0 0-15.176527 20.643575 40.018796 40.018796 0 0 0-5.248367 14.914109 18.981593 18.981593 0 0 0 15.132791 21.562039c9.578269 2.05561 19.812584 2.842865 29.609535 2.099347a173.720935 173.720935 0 0 0 91.802679-34.508011c35.207793-26.110624 46.535517-61.668308 38.006922-103.873922-2.318029-11.458934-6.385513-22.611713-10.365524-33.633283-1.793192-4.985948-1.880665-8.484859 1.355828-13.120917 28.166234-40.193741 52.221248-82.880456 74.570542-126.485635a26.810406 26.810406 0 0 1 3.323966-5.292103c7.26024 37.744503 18.150601 74.089442 37.700767 107.066679-9.971897 9.622005-19.85632 18.325547-28.778544 27.947552-19.681375 21.124676-36.738566 44.130016-45.617053 72.121305-3.805066 12.071243-6.77914 24.317432-5.073421 37.263403 2.66792 20.031266 19.069065 33.020973 38.75044 28.472389 42.118142-9.753215 78.506817-29.609535 105.098542-64.773592 17.888183-23.661386 19.506429-50.078165 12.027506-77.763299-2.05561-7.522659-4.504848-14.914108-7.129031-23.573913 10.40926-3.236493 20.556103-7.085295 31.0091-9.490796 54.451804-12.421134 108.291298-10.234315 160.731227 9.403323 30.615472 11.458934 55.370268 30.702945 70.021958 60.924789 17.931919 36.957248 8.003759 71.990096-26.810406 95.345327-3.236493 2.186819-6.954086 3.892539-9.665742 6.604195a9.44706 9.44706 0 0 0-2.230555 7.303977c0.218682 1.355828 3.805066 3.017811 5.816939 3.017811 11.458934-0.087473 20.731048-6.079358 29.653272-12.246189 22.349295-15.438945 37.088457-36.257466 40.587368-63.592709 0.087473-0.787255-1.049673-1.530774 1.749456-2.274292v-18.194338c-2.799129-0.743519-1.618246-1.487037-1.705719-2.274292zM304.405264 799.501182c-3.63012 48.766073-25.716996 88.303768-61.843253 120.275069-20.337421 18.019392-43.605179 30.834154-70.765477 35.339002-9.840687 1.618246-19.900057 2.011874-29.478326-2.05561-13.602017-5.81694-16.663564-17.888183-16.925982-30.790418-0.393627-20.512366 6.77914-39.056595 16.619828-56.68236 12.858498-23.00534 31.708882-40.543632 51.82762-56.901041 31.708882-25.804469 66.129419-47.672664 101.337212-68.272503 0.568573-0.349891 1.268355-0.524837 2.66792-1.093409 5.423312 20.118739 8.047495 39.975059 6.516722 60.225007z m275.101884-211.902802a369.572483 369.572483 0 0 1-10.321788 46.229363c-15.7451 52.221248-35.907575 102.867986-57.732032 152.771205-4.023748 9.228378-9.884424 17.669501-15.001582 26.416778-0.787255 1.355828-1.968137 2.536711-3.105283 3.673857-6.29804 6.254304-12.333662 5.904412-15.526418-2.274292a171.884007 171.884007 0 0 1-7.960023-29.697008c-1.312092-6.735404-1.005937-13.820699-1.399564-20.731048 0.437364-49.115964 15.395209-93.814553 40.849786-135.364123 10.496733-17.144664 21.911931-33.458337 39.319014-44.348698a70.852949 70.852949 0 0 1 17.450819-7.74134c9.272114-2.624183 15.001581 1.705719 13.470807 11.02157z m187.672843 239.106836l67.441511-78.769236c2.799129 29.259644-46.885409 87.647723-67.441511 78.769236z m215.44545-52.964766c-4.767266 2.711656-9.971897 4.72353-14.870372 7.216504-4.461112 2.318029-5.948149 0-6.079358-3.848803a26.679197 26.679197 0 0 1 1.005937-7.872549 169.084878 169.084878 0 0 1 50.821683-81.830783c0.349891-0.349891 0.918464-0.4811 1.749456-0.918465a72.208777 72.208777 0 0 1-32.671082 87.254096z" fill="#C86496" p-id="2461"></path></svg>