<?xml version="1.0" standalone="no"?><!DOCTYPE svg PUBLIC "-//W3C//DTD SVG 1.1//EN" "http://www.w3.org/Graphics/SVG/1.1/DTD/svg11.dtd"><svg t="1497344705599" class="icon" style="" viewBox="0 0 1147 1024" version="1.1" xmlns="http://www.w3.org/2000/svg" p-id="5836" xmlns:xlink="http://www.w3.org/1999/xlink" width="224.0234375" height="200"><defs><style type="text/css"></style></defs><path d="M1064.92451 0H81.912395A81.912395 81.912395 0 0 0 0 81.912395v655.29916a81.912395 81.912395 0 0 0 81.912395 81.912395h409.593662v122.884436H286.709226a40.987885 40.987885 0 0 0-40.956197 40.956198v40.956197h655.346691v-40.956197a40.987885 40.987885 0 0 0-40.972041-40.956198H655.346691V819.12395h409.577819a81.912395 81.912395 0 0 0 81.928239-81.912395V81.912395A81.912395 81.912395 0 0 0 1064.92451 0zM532.462255 737.227399a40.972041 40.972041 0 1 1 81.880707 0.031687 40.972041 40.972041 0 0 1-81.880707-0.031687M81.912395 81.912395h983.012115v573.386765H81.912395V81.912395z" fill="#1296db" p-id="5837"></path></svg>