<?xml version="1.0" standalone="no"?><!DOCTYPE svg PUBLIC "-//W3C//DTD SVG 1.1//EN" "http://www.w3.org/Graphics/SVG/1.1/DTD/svg11.dtd"><svg t="1497344710066" class="icon" style="" viewBox="0 0 1024 1024" version="1.1" xmlns="http://www.w3.org/2000/svg" p-id="5959" xmlns:xlink="http://www.w3.org/1999/xlink" width="200" height="200"><defs><style type="text/css"></style></defs><path d="M283.4 960l119.7-396.3-153.9-17.2L693.8 64.1 591.2 425.8H728L283.4 960z" fill="#ffffff" p-id="5960"></path><path d="M284.2 818.9l18.2-60.3c-12.9-9.5-25.1-20-36.6-31.5-59.5-59.5-92.3-138.6-92.3-222.8 0-84.2 32.8-163.3 92.3-222.8s138.6-92.3 222.8-92.3c11.4 0 22.6 0.6 33.7 1.8l48.6-52.7c-26.8-6-54.4-9.1-82.3-9.1-50.6 0-99.7 9.9-146 29.5-44.7 18.9-84.8 45.9-119.2 80.4-34.4 34.4-61.5 74.5-80.4 119.2-19.6 46.3-29.5 95.4-29.5 146 0 50.6 9.9 99.7 29.5 146 18.9 44.7 45.9 84.8 80.4 119.2 18.6 18.8 39 35.2 60.8 49.4zM834.2 358.4c-18.9-44.7-45.9-84.8-80.4-119.2-17-17-35.5-32.3-55.2-45.6L681.2 255c10.5 8.2 20.6 17 30.2 26.6 59.5 59.5 92.3 138.6 92.3 222.8 0 84.2-32.8 163.3-92.3 222.8s-138.6 92.3-222.8 92.3c-11.7 0-23.2-0.7-34.6-1.9l-44.6 53.5c25.8 5.6 52.3 8.4 79.2 8.4 50.6 0 99.7-9.9 146-29.5 44.7-18.9 84.8-45.9 119.2-80.4s61.5-74.5 80.4-119.2c19.6-46.3 29.5-95.4 29.5-146 0-50.6-10-99.8-29.5-146z" fill="#ffffff" p-id="5961"></path></svg>