<?xml version="1.0" standalone="no"?><!DOCTYPE svg PUBLIC "-//W3C//DTD SVG 1.1//EN" "http://www.w3.org/Graphics/SVG/1.1/DTD/svg11.dtd"><svg t="1497344723437" class="icon" style="" viewBox="0 0 1024 1024" version="1.1" xmlns="http://www.w3.org/2000/svg" p-id="6329" xmlns:xlink="http://www.w3.org/1999/xlink" width="200" height="200"><defs><style type="text/css"></style></defs><path d="M364.5426 960.0055 220.322941 960.0055c-31.855522 0-57.655118-25.800619-57.655118-57.652048L162.667823 123.68702c0-31.853475 25.800619-57.644885 57.655118-57.644885l144.219659 0c31.855522 0 57.650001 25.791409 57.650001 57.644885L422.192601 902.354476C422.192601 934.205904 396.397099 960.0055 364.5426 960.0055L364.5426 960.0055z" fill="#ffffff" p-id="6330"></path><path d="M797.11255 960.0055 652.893914 960.0055c-31.855522 0-57.655118-25.800619-57.655118-57.652048L595.238796 123.68702c0-31.853475 25.800619-57.644885 57.655118-57.644885l144.219659 0c31.855522 0 57.650001 25.791409 57.650001 57.644885L854.763574 902.354476C854.763574 934.205904 828.968072 960.0055 797.11255 960.0055L797.11255 960.0055z" fill="#ffffff" p-id="6331"></path></svg>