<svg xmlns="http://www.w3.org/2000/svg" width="1024" height="1024">
  <path fill="#1176c2" d="M521.127 264.468c-.895 2.277-2.22 2.783-5.276 2.017-3-.756-4.08-.37-4.08 1.464 0 1.36-1.1 2.48-2.46 2.48s-2.45.73-2.45 1.64c0 .9-1.47 1.64-3.27 1.64s-3.27.81-3.27 1.81-1.17 1.36-2.61.81c-1.74-.67-2.89.09-3.46 2.27-.65 2.51-1.76 3.04-4.76 2.29-2.92-.73-3.91-.31-3.91 1.68 0 2.02-.98 2.42-4.11 1.63-3.33-.84-3.92-.53-3.1 1.61.73 1.91.06 2.64-2.44 2.64-1.9 0-3.45.73-3.45 1.63s-1.1 1.64-2.46 1.64-2.46.73-2.46 1.64-1.47 1.64-3.28 1.64c-1.84 0-3.27 1.09-3.27 2.49 0 1.83-1.07 2.22-4.09 1.46-3.1-.78-4.1-.39-4.1 1.61 0 1.54-1.36 2.63-3.28 2.63-1.8 0-3.27.73-3.27 1.63s-1.48 1.64-3.28 1.64-3.28.74-3.28 1.64-1.88 1.64-4.19 1.64c-2.38 0-3.75.71-3.18 1.63.56.9-.14 1.64-1.54 1.64s-2.55 1.19-2.55 2.64c0 1.99-1 2.38-4.1 1.6-3.02-.76-4.1-.38-4.1 1.46 0 1.39-1.43 2.48-3.27 2.48-1.8 0-3.28.73-3.28 1.63s-1.39 1.64-3.1 1.64-3.5 1.05-4 2.33c-.55 1.43-2.2 1.99-4.27 1.45-2.45-.64-3.38-.1-3.38 1.96 0 1.99-.93 2.59-3.15 2.01-2.21-.58-2.89-.15-2.28 1.45.57 1.49-.31 2.27-2.58 2.27-1.9 0-3.45.74-3.45 1.64s-1.47 1.64-3.27 1.64-3.28.74-3.28 1.64-1.84 1.64-4.09 1.64c-2.63 0-4.09.92-4.09 2.57 0 1.82-.95 2.27-3.27 1.53s-3.28-.3-3.28 1.53c0 1.47-1.39 2.56-3.27 2.56-1.8 0-3.28.74-3.28 1.64s-1.1 1.64-2.45 1.64-2.46.73-2.46 1.63-1.48 1.63-3.28 1.63c-1.85 0-3.28 1.09-3.28 2.51 0 3.74 9.4 12.29 12.29 11.19 1.56-.6 2.46.02 2.46 1.69 0 1.54 1.36 2.63 3.28 2.63 1.8 0 3.28.74 3.28 1.64s1.48 1.64 3.28 1.64c1.8 0 3.28.74 3.28 1.64s1.11 1.64 2.46 1.64 2.46 1.16 2.46 2.57c0 1.82.95 2.26 3.28 1.53s3.28-.3 3.28 1.52c0 1.65 1.47 2.57 4.1 2.57 2.25 0 4.1.74 4.1 1.64s1.1 1.64 2.46 1.64 2.46.74 2.46 1.64 1.48 1.64 3.28 1.64c3.64 0 4.41 2.49 1.23 3.94-1.13.52.35.52 3.28.01 4.28-.75 5.32-.38 5.32 1.85 0 1.97.95 2.53 3.278 1.92 2.13-.56 3.27-.05 3.27 1.45 0 1.27 1.48 2.3 3.28 2.3s3.28.74 3.28 1.64c0 .9 1.11 1.64 2.46 1.64s2.46.74 2.46 1.64c0 .9 1.477 1.64 3.28 1.64 1.82 0 3.27 1.09 3.27 2.45 0 1.47 1.51 2.46 3.74 2.46 2.05 0 4.8 1.48 6.094 3.28s4.04 3.28 6.096 3.28 3.74.74 3.74 1.64 1.48 1.64 3.28 1.64c1.884 0 3.27 1.09 3.27 2.58 0 1.59 1.09 2.34 2.86 1.96 1.58-.34 4.49 1.08 6.48 3.15s4.75 3.77 6.14 3.77 2.54.74 2.54 1.64c0 .9 1.48 1.64 3.28 1.64s3.28.73 3.28 1.63c0 .9 1.552 1.64 3.45 1.64 2.46 0 3.17.74 2.47 2.56-.75 1.97-.22 2.32 2.28 1.53 2.32-.74 3.27-.29 3.27 1.53 0 1.65 1.47 2.57 4.1 2.57 2.25 0 4.095.73 4.095 1.64s1.48 1.64 3.28 1.64 3.28.73 3.28 1.63 2.95 1.63 6.56 1.63 6.56-.74 6.56-1.64 1.14-1.64 2.53-1.64 4.11-1.47 6.04-3.28 4.856-3.27 6.49-3.27 2.966-1.11 2.966-2.46c0-1.37 1.46-2.46 3.28-2.46 1.8 0 3.28-.74 3.28-1.64s1.68-1.64 3.74-1.64 4.8-1.48 6.1-3.28 4.04-3.28 6.095-3.28c2.3 0 3.73-.98 3.73-2.56 0-1.83.95-2.27 3.27-1.53s3.28.29 3.28-1.53c0-1.47 1.4-2.56 3.28-2.56 1.8 0 3.28-.74 3.28-1.64s1.11-1.64 2.46-1.64 2.46-.74 2.46-1.64 1.47-1.64 3.28-1.64c1.84 0 3.28-1.09 3.28-2.49 0-1.84 1.07-2.22 4.11-1.46 3.33.83 3.92.53 3.1-1.61-.73-1.91-.06-2.64 2.44-2.64 1.9 0 3.46-.55 3.46-1.23.01-1.47 7.95-5.32 10.96-5.32 1.17 0 2.13-1.15 2.13-2.57 0-1.82.95-2.26 3.276-1.53 2.39.76 3.28.3 3.28-1.7 0-2.13 1.01-2.54 4.5-1.81 2.48.51 3.59.53 2.46.04-3.19-1.39-2.4-3.9 1.23-3.9 1.8 0 3.28-.74 3.28-1.64s1.4-1.64 3.1-1.64 3.55-1.15 4.09-2.56 1.72-2.1 2.623-1.54 3.39-.87 5.53-3.17 5.08-4.19 6.56-4.19c1.47 0 2.68-.74 2.68-1.64s1.84-1.64 4.09-1.64 4.09-.738 4.09-1.64 1.2-1.637 2.68-1.637c1.47 0 4.38-1.834 6.46-4.08 2.28-2.46 4.79-3.69 6.33-3.1 1.65.64 2.55.06 2.55-1.65 0-1.45.74-2.63 1.64-2.63s1.64-1.478 1.64-3.28c0-2.19-1.1-3.28-3.28-3.28-1.81 0-3.28-.74-3.28-1.64s-1.83-1.6-3.99-1.6c-2.87 0-4.25-1.2-5.17-4.51-.94-3.37-1.43-3.78-1.94-1.64-.88 3.766-1.52 3.64-6.02-1.23-2.09-2.25-5-4.09-6.474-4.09-1.47 0-2.68-.74-2.68-1.64s-1.473-1.64-3.275-1.64-3.277-.74-3.277-1.64-1.76-1.638-3.91-1.638c-2.62 0-4.21-1.16-4.83-3.54-.78-2.99-1.32-3.21-3.47-1.44-2.11 1.76-2.54 1.67-2.54-.55 0-1.46-1.1-2.65-2.454-2.65s-2.45-.738-2.45-1.64c0-.9-1.475-1.63-3.28-1.63s-3.273-.74-3.273-1.64c0-.9-1.48-1.64-3.28-1.64-1.84 0-3.28-1.09-3.28-2.49 0-1.837-1.08-2.22-4.1-1.46-3.19.8-4.1.4-4.1-1.8 0-2.02-.94-2.58-3.28-1.968-2.13.55-3.28.05-3.28-1.45 0-1.27-1.48-2.31-3.28-2.31s-3.28-.74-3.28-1.64c0-.9-1.11-1.64-2.46-1.64s-2.46-.74-2.46-1.64c0-.9-1.48-1.64-3.28-1.64-1.84 0-3.28-1.09-3.28-2.49 0-1.84-1.07-2.22-4.1-1.46-3.18.8-4.1.4-4.1-1.8 0-2.02-.93-2.58-3.28-1.97-2.13.55-3.27.05-3.27-1.45 0-1.27-1.48-2.3-3.28-2.3s-3.29-.74-3.29-1.64-1.47-1.64-3.27-1.64-3.28-1.04-3.28-2.3c0-1.5-1.15-2-3.28-1.45-2.26.59-3.28.05-3.28-1.74 0-1.58-.92-2.25-2.33-1.71-1.33.51-3.1-.54-4.12-2.45-1.06-1.99-2.772-2.97-4.22-2.41-1.33.51-2.43.12-2.43-.88s-1.47-1.82-3.27-1.82-3.272-.74-3.272-1.64-1.844-1.64-4.1-1.64-4.094-.74-4.094-1.64-1.05-1.64-2.34-1.64c-1.29 0-2.6-1.29-2.92-2.87-.54-2.65-.67-2.64-1.78.17zM333.184 477.563c0 52.642-.45 96.88-.995 98.304-.78 2.032.14 2.59 4.27 2.59 4.17 0 5.05.55 4.25 2.64-.82 2.137-.23 2.444 3.1 1.61 3.14-.79 4.11-.398 4.11 1.646 0 1.874.98 2.423 3.27 1.823 2.13-.557 3.27-.05 3.27 1.448 0 1.366 1.67 2.304 4.09 2.304 2.25 0 4.09.737 4.09 1.638s1.47 1.638 3.27 1.638 3.27.737 3.27 1.638 1.1 1.638 2.45 1.638 2.45 1.155 2.45 2.568c0 1.823.95 2.265 3.28 1.528s3.28-.295 3.28 1.528c0 1.477 1.39 2.568 3.27 2.568 1.81 0 3.28.737 3.28 1.638s1.84 1.638 4.1 1.638 4.09.737 4.09 1.638 1.47 1.638 3.27 1.638c1.82 0 3.27 1.092 3.27 2.458 0 1.39 1.46 2.458 3.37 2.458 1.86 0 2.92.737 2.36 1.638s.51 1.638 2.36 1.638 3.37.737 3.37 1.638c0 .9 1.88 1.638 4.19 1.638 2.37 0 3.75.71 3.18 1.638-.58.936.86 1.638 3.35 1.638 2.95 0 4.1.705 3.53 2.165-.46 1.192.54 3.025 2.22 4.073 2.51 1.567 2.89 1.473 2.12-.528-.51-1.337-.12-2.433.88-2.433s1.81 1.106 1.81 2.458c0 1.366 1.45 2.458 3.27 2.458 1.8 0 3.27.74 3.27 1.64s1.47 1.64 3.28 1.64 3.28.74 3.28 1.64 1.47 1.64 3.27 1.64 3.28.74 3.28 1.64 1.39 1.64 3.08 1.64c1.77 0 3.56 1.57 4.21 3.69.68 2.23 1.45 2.88 1.96 1.64 1.17-2.85 3.85-2.56 3.85.41 0 1.37 1.45 2.46 3.27 2.46 1.8 0 3.27.74 3.27 1.64s1.47 1.64 3.27 1.64 3.28.74 3.28 1.64 1.47 1.64 3.27 1.64c3.64 0 4.41 2.48 1.23 3.94-1.13.51.25.54 3.06.05 4.3-.74 5.292-.28 6.253 2.89.69 2.27 1.48 2.95 1.99 1.72 1.18-2.85 3.85-2.56 3.85.41 0 1.64 1.64 2.46 4.917 2.46H510v-91.87c0-95.28-.08-96.55-6.44-96.55-.96 0-1.75-1.15-1.75-2.56 0-1.82-.95-2.26-3.27-1.52s-3.28.3-3.28-1.53c0-1.48-1.39-2.57-3.276-2.57-1.8 0-3.27-.74-3.27-1.64s-1.53-1.64-3.4-1.64c-3.64 0-8.07-3.55-8.07-6.47 0-1.08-1.6-1.38-4.1-.76-3.18.8-4.09.4-4.09-1.79 0-2.02-.94-2.58-3.28-1.97-2.13.56-3.276.05-3.276-1.45 0-1.27-1.478-2.3-3.28-2.3s-3.28-.73-3.28-1.63c0-.9-1.11-1.64-2.46-1.64s-2.46-.74-2.46-1.64c0-.9-1.47-1.64-3.28-1.64-1.92 0-3.27-1.09-3.27-2.64 0-1.85-1-2.39-3.28-1.79-2.13.56-3.27.05-3.27-1.45 0-1.27-1.52-2.3-3.37-2.3s-2.92-.73-2.36-1.64c.555-.9-.51-1.63-2.36-1.63s-3.376-.74-3.376-1.64c0-.9-1.76-1.64-3.91-1.64-2.63 0-4.21-1.16-4.83-3.55-.79-2.99-1.33-3.21-3.47-1.44-2.12 1.76-2.54 1.67-2.54-.54 0-1.46-1.15-2.66-2.56-2.66s-2.1-.73-1.55-1.63c.57-.93-.81-1.64-3.18-1.64-2.31 0-4.2-.73-4.2-1.63s-1.476-1.64-3.28-1.64c-1.916 0-3.276-1.09-3.276-2.63 0-1.75-.89-2.29-2.66-1.61-1.67.64-4.075-.51-6.475-3.1-2.1-2.26-4.96-4.12-6.35-4.12s-2.53-.73-2.53-1.64c0-.9-1.85-1.63-4.1-1.63s-4.1-.73-4.1-1.64c0-.9-1.19-1.63-2.64-1.63-1.72 0-2.29-.89-1.65-2.56.76-1.97.22-2.32-2.29-1.52-2.19.69-3.61.17-4.28-1.58-.65-1.68-2.11-2.27-4.09-1.64-2.12.67-3.08.18-3.08-1.59 0-1.48-1.4-2.57-3.28-2.57-1.8 0-3.28-.73-3.28-1.64s-1.03-1.64-2.28-1.64c-1.26 0-2.71-1.1-3.23-2.46-3.74-9.74-4.32 2.87-4.32 93.26zM705.1 384.186c0 1.487-1.388 2.578-3.276 2.578-1.802 0-3.277.737-3.277 1.638s-1.106 1.638-2.458 1.638c-1.36 0-2.46.737-2.46 1.638s-1.85 1.638-4.1 1.638c-2.4 0-3.93.846-3.69 2.048.24 1.237-1.05 1.894-3.28 1.657-2.35-.24-3.69.5-3.69 2.05 0 1.34-1.11 2.44-2.46 2.44s-2.46.74-2.46 1.64c0 .9-1.48 1.64-3.28 1.64s-3.28.74-3.28 1.64c0 .9-1.48 1.64-3.28 1.64-1.89 0-3.28 1.1-3.28 2.57 0 1.82-.96 2.27-3.28 1.53s-3.28-.29-3.28 1.53c0 1.42-1.11 2.57-2.46 2.57s-2.46.74-2.46 1.64c0 .9-1.48 1.64-3.28 1.64s-3.28.74-3.28 1.64c0 .9-1.84 1.64-4.1 1.64-2.63 0-4.1.92-4.1 2.57 0 1.83-.95 2.27-3.28 1.53-1.97-.62-3.28-.29-3.28.83 0 2.99-4.39 6.55-8.08 6.55-1.87 0-3.4.74-3.4 1.64s-1.47 1.64-3.28 1.64-3.27.74-3.27 1.64-1.48 1.64-3.28 1.64-3.28.74-3.28 1.64-1.1 1.64-2.46 1.64-2.46 1.12-2.46 2.49c0 1.84-1.08 2.22-4.12 1.46-3.33-.83-3.92-.52-3.1 1.61.77 2.01-.01 2.64-3.26 2.64-2.35 0-4.27.74-4.27 1.64s-1.11 1.64-2.46 1.64c-1.35 0-2.46.74-2.46 1.64s-1.02 1.64-2.28 1.64-2.68 1.05-3.18 2.33c-.55 1.43-2.2 1.99-4.27 1.45-2.38-.62-3.38-.1-3.38 1.77 0 1.56-1.35 2.65-3.28 2.65-1.8 0-3.28.74-3.28 1.64s-1.11 1.64-2.46 1.64-2.46.74-2.46 1.64-1.48 1.64-3.28 1.64c-1.88 0-3.28 1.09-3.28 2.57 0 1.82-.96 2.26-3.28 1.53-2.39-.76-3.28-.29-3.28 1.71 0 2.12-.94 2.51-4.11 1.72l-4.11-1.03.42 94.65.42 94.66 4.51.52c3.23.38 4.5-.21 4.5-2.08 0-1.95 1.02-2.34 4.12-1.56 3.45.87 3.93.57 3.01-1.85-.95-2.46-.42-2.74 3.66-1.88 2.63.55 3.85.6 2.73.11-3.2-1.39-2.41-3.89 1.23-3.89 1.8 0 3.27-.74 3.27-1.64s1.47-1.64 3.28-1.64 3.27-.74 3.27-1.64 1.84-1.64 4.1-1.64c2.63 0 4.09-.92 4.09-2.57 0-1.82.95-2.26 3.28-1.53s3.28.29 3.28-1.53c0-1.48 1.4-2.57 3.28-2.57 1.8 0 3.27-.73 3.27-1.63s1.11-1.64 2.46-1.64c1.35 0 2.46-.74 2.46-1.64s1.39-1.64 3.1-1.64 3.5-1.05 3.99-2.33c.55-1.42 2.21-1.99 4.27-1.45 2.4.63 3.38.1 3.38-1.8 0-2.04.98-2.43 4.12-1.64 3.33.83 3.92.52 3.1-1.61-.73-1.92-.06-2.64 2.44-2.64 1.9 0 3.45-.74 3.45-1.64s1.1-1.64 2.46-1.64 2.46-.74 2.46-1.64 1.49-1.64 3.33-1.64 3.72-1.03 4.2-2.28c.5-1.31 2.21-1.92 4.04-1.44 2.17.57 3.17 0 3.17-1.82 0-1.55 1.35-2.65 3.28-2.65 1.8 0 3.27-.73 3.27-1.63s1.47-1.64 3.27-1.64 3.27-.73 3.27-1.63 1.47-1.64 3.28-1.64c1.8 0 3.28-.73 3.28-1.64s1.47-1.63 3.27-1.63 3.28-1.04 3.28-2.3c0-1.5 1.14-2.01 3.27-1.45 2.28.6 3.27.05 3.27-1.79 0-1.56 1.35-2.65 3.28-2.65 1.8 0 3.27-.74 3.27-1.64s1.84-1.64 4.09-1.64 4.1-.73 4.1-1.63 1.4-1.64 3.1-1.64 3.51-1.05 4-2.33c.54-1.41 2.39-2.05 4.68-1.62 2.08.39 2.87.27 1.74-.26-3.12-1.48-2.44-3.97 1.09-3.97 1.73 0 3.52-.92 3.97-2.04.62-1.54 1.26-1.44 2.58.41 1.24 1.75 1.63-25.93 1.35-95.82-.37-92.12-.57-98.31-3.26-98.83-1.75-.33-2.87.46-2.87 2.03z"/>
  <path fill="#8bd5fd" d="M500.893 122.163c-.518 1.352-2.2 2.458-3.736 2.458s-4.375 1.48-6.31 3.28c-1.933 1.8-4.653 3.28-6.044 3.28-1.39 0-2.525.74-2.525 1.64s-1.497 1.64-3.328 1.64-3.752 1.11-4.272 2.46c-.518 1.35-2.34 2.46-4.045 2.46s-3.1.74-3.1 1.64c0 .9-1.476 1.64-3.278 1.64s-3.277.74-3.277 1.64c0 .9-1.106 1.64-2.458 1.64s-2.458.74-2.458 1.64c0 .9-1.475 1.64-3.277 1.64s-3.277.66-3.277 1.46c0 .81-1.843 1.92-4.096 2.49-2.253.57-4.096 1.75-4.096 2.64s-1.137 1.61-2.525 1.61c-1.39 0-4.11 1.48-6.04 3.28-1.93 1.8-4.85 3.28-6.48 3.28s-2.96.74-2.96 1.64c0 .9-1.47 1.64-3.27 1.64-1.82 0-3.27 1.09-3.27 2.46 0 1.47-1.5 2.46-3.73 2.46-2.05 0-4.8 1.47-6.09 3.28s-3.63 3.28-5.18 3.28c-1.55 0-3.27.74-3.83 1.64s-2.13 1.64-3.49 1.64c-1.37 0-3.51.92-4.76 2.05-5.42 4.87-7.27 6.15-8.88 6.15-.94 0-1.71.74-1.71 1.64s-1.47 1.64-3.27 1.64-3.27.74-3.27 1.64-1.43 1.64-3.18 1.64-3.63.74-4.19 1.64c-.55.9-2.44 1.64-4.19 1.64s-3.18 1.11-3.18 2.46c0 1.36-1.45 2.46-3.28 2.46-1.8 0-3.27.73-3.27 1.63s-1.11 1.64-2.46 1.64c-1.35 0-2.45.74-2.45 1.64s-1.48 1.64-3.28 1.64-3.28.73-3.28 1.64-1.47 1.63-3.27 1.63-3.28.69-3.28 1.53-1.66 2.05-3.68 2.69c-2.02.64-4.87 2.53-6.33 4.21-1.45 1.67-3.81 3.04-5.23 3.04-1.41 0-3.03.74-3.59 1.64s-2.44 1.64-4.19 1.64c-1.75 0-3.18.74-3.18 1.64s-1.47 1.63-3.27 1.63c-1.82 0-3.28 1.09-3.28 2.46 0 1.36-1.1 2.46-2.45 2.46s-2.46.74-2.46 1.64c0 .9-1.48 1.64-3.28 1.64s-3.28.74-3.28 1.64c0 .9-1.84 1.64-4.09 1.64s-4.1.73-4.1 1.63c0 .9-1.16 1.64-2.57 1.64-1.42 0-3.6.92-4.86 2.04-5.42 4.86-7.28 6.14-8.88 6.14-.94 0-1.7.74-1.7 1.64s-1.48 1.64-3.28 1.64-3.28.73-3.28 1.63-.99 1.64-2.21 1.64c-3.66 0-11.56 4.54-14.13 8.11-1.33 1.85-4.09 3.36-6.15 3.36-2.05 0-3.73.74-3.73 1.64s-1.48 1.64-3.28 1.64-3.28.69-3.28 1.53c0 .84-1.66 1.76-3.69 2.05-7.62 1.09-3.52 14.45 4.43 14.45 1.39 0 2.53.74 2.53 1.64s1.14 1.64 2.534 1.64 4.247 1.84 6.33 4.1 5 4.1 6.48 4.1c1.476 0 2.68.74 2.68 1.64s1.68 1.64 3.736 1.64c2.06 0 4.8 1.47 6.1 3.28s3.6 3.27 5.104 3.27 3.167 1.11 3.68 2.46c.52 1.36 2.44 2.46 4.27 2.46s3.327.74 3.327 1.64c0 .9 1.48 1.64 3.28 1.64s3.28.74 3.28 1.64c0 .9 1.11 1.64 2.46 1.64s2.46.74 2.46 1.64c0 .9 1.39 1.64 3.1 1.64s3.53 1.11 4.05 2.46 2.07 2.46 3.45 2.46 2.51.74 2.51 1.64c0 .9 1.68 1.64 3.73 1.64s4.8 1.48 6.09 3.28 3.68 3.28 5.28 3.28 2.92.74 2.92 1.64 2.58 1.64 5.73 1.64 5.74-.74 5.74-1.64 1.47-1.64 3.28-1.64c1.8 0 3.27-.74 3.27-1.64s1.68-1.63 3.735-1.63 4.8-1.48 6.1-3.28 3.69-3.28 5.32-3.28c1.63 0 3.39-1.11 3.91-2.46.52-1.35 2.34-2.46 4.044-2.46s3.1-.73 3.1-1.64c0-.9 1.48-1.64 3.28-1.64s3.28-.73 3.28-1.63c0-.9 1.53-1.64 3.392-1.64 1.87 0 4.43-.92 5.68-2.05 5.42-4.86 7.28-6.15 8.88-6.15.94 0 1.71-.74 1.71-1.64s1.48-1.64 3.28-1.64 3.28-.74 3.28-1.64 1.48-1.64 3.28-1.64 3.28-.74 3.28-1.64 1.84-1.64 4.096-1.64 4.1-.73 4.1-1.64 1.13-1.64 2.51-1.64 2.93-1.11 3.45-2.46 1.97-2.46 3.23-2.46 2.28-.74 2.28-1.64c0-.9 1.473-1.63 3.28-1.63s3.273-.74 3.273-1.64c0-.9 1.48-1.64 3.28-1.64s3.276-.73 3.276-1.64c0-.9 1.5-1.64 3.33-1.64s3.75-1.1 4.27-2.46c.51-1.35 2.34-2.45 4.04-2.45s3.1-.74 3.1-1.64c0-.9 1.336-1.64 2.97-1.64s4.55-1.48 6.482-3.28c1.93-1.8 4.65-3.28 6.04-3.28 1.39 0 2.52-.73 2.52-1.63s1.5-1.64 3.33-1.64 3.75-1.11 4.27-2.46c.52-1.35 2.34-2.46 4.05-2.46s3.1-.73 3.1-1.64c0-.9 1.84-1.63 4.09-1.63s4.1-.56 4.1-1.24c0-.68 2.21-2.21 4.91-3.41 2.7-1.2 4.91-3.22 4.91-4.5 0-1.38 1.66-2.32 4.1-2.32 2.26 0 4.1-.74 4.1-1.64s1.48-1.64 3.28-1.64c3.22 0 3.28-1.09 3.28-63.9v-63.9H506c-2.28 0-4.57 1.11-5.09 2.46zm30.947-1.372c-1.587.64-2.048 14.48-2.048 61.43 0 63.11.23 65.28 6.867 65.28 1.2 0 3.57 1.85 5.26 4.1s4.44 4.1 6.12 4.1c1.67 0 3.04.74 3.04 1.64s1.47 1.64 3.27 1.64 3.27.74 3.27 1.64 1.84 1.64 4.09 1.64 4.1.74 4.1 1.64 1.06 1.64 2.37 1.64c1.3 0 4.36 1.85 6.79 4.1s5.41 4.1 6.63 4.1c1.22 0 2.22.74 2.22 1.64s1.47 1.64 3.28 1.64 3.27.74 3.27 1.64 1.84 1.64 4.09 1.64 4.1.74 4.1 1.64 1.47 1.64 3.28 1.64 3.28.97 3.28 2.16 2.58 3.17 5.73 4.4c3.15 1.24 5.73 2.85 5.73 3.59s1.47 1.34 3.27 1.34 3.27.74 3.27 1.64 1.85 1.64 4.1 1.64 4.09.69 4.09 1.52c0 1.65 9.17 6.68 12.18 6.68 1.02 0 2.91 1.48 4.21 3.28s3.67 3.28 5.28 3.28c1.6 0 2.91.74 2.91 1.64s1.84 1.64 4.09 1.64c2.54 0 4.09.93 4.09 2.46 0 1.36 1.45 2.46 3.27 2.46 1.8 0 3.28.74 3.28 1.64s1.68 1.64 3.73 1.64 4.8 1.48 6.1 3.28 3.67 3.28 5.27 3.28 2.92.72 2.92 1.61c0 .88 1.84 2.07 4.09 2.63s4.1 1.68 4.1 2.49c0 .8 1.47 1.46 3.28 1.46s3.27.73 3.27 1.64c0 .9 1.84 1.64 4.09 1.64s4.09.74 4.09 1.64c0 .9 1.48 1.64 3.28 1.64s3.28.74 3.28 1.64c0 3.13 10.63 1.79 13.11-1.64 1.3-1.8 3.67-3.28 5.28-3.28 1.6 0 2.91-.73 2.91-1.63s1.13-1.64 2.51-1.64c2.98 0 10.34-4.48 14.06-8.56 1.45-1.6 4.22-2.91 6.14-2.91s3.5-.74 3.5-1.64 1.47-1.64 3.27-1.64 3.28-.73 3.28-1.64.93-1.63 2.06-1.63c1.14 0 4.05-1.84 6.48-4.09 2.43-2.25 5.55-4.1 6.94-4.1s2.53-.74 2.53-1.64c0-.9 1.68-1.63 3.74-1.63s4.8-1.47 6.1-3.27 3.7-3.28 5.33-3.28 3.39-1.11 3.91-2.46c.52-1.35 2.34-2.46 4.04-2.46s3.1-.74 3.1-1.64c0-.9 1.47-1.64 3.28-1.64s3.27-.73 3.27-1.64c0-.9 1.1-1.63 2.46-1.63s2.45-1.21 2.45-2.69c0-3.32-8.89-12.05-12.27-12.05-1.36 0-2.47-.73-2.47-1.64s-1.84-1.64-4.09-1.64-4.09-.73-4.09-1.63-1.48-1.63-3.28-1.63-3.28-.97-3.28-2.15-2.58-3.16-5.73-4.4c-3.16-1.23-5.74-2.85-5.74-3.58s-1.48-1.33-3.28-1.33-3.28-.73-3.28-1.63-1.85-1.64-4.1-1.64c-2.55 0-4.1-.93-4.1-2.46 0-1.35-1.13-2.46-2.52-2.46-1.39 0-4.11-1.47-6.04-3.28s-4.86-3.27-6.49-3.27-2.97-.74-2.97-1.64c0-.9-1.48-1.64-3.28-1.64s-3.28-.74-3.28-1.64c0-.9-1.84-1.64-4.1-1.64-2.29 0-4.09-.95-4.09-2.16 0-2.29-11.85-9.31-15.72-9.31-1.27 0-2.3-.74-2.3-1.64s-1.07-1.64-2.38-1.64c-1.3 0-4.36-1.84-6.79-4.09s-5.41-4.1-6.63-4.1c-1.22 0-2.22-.74-2.22-1.64s-1.48-1.64-3.28-1.64-3.28-.74-3.28-1.64-1.508-1.64-3.35-1.64c-1.84 0-5.198-1.84-7.45-4.09s-5.17-4.1-6.48-4.1c-1.31 0-2.386-.74-2.386-1.64s-1.47-1.63-3.27-1.63-3.28-.74-3.28-1.64-1.475-1.64-3.277-1.64-3.28-.74-3.28-1.64-1.84-1.64-4.094-1.64-4.1-.79-4.1-1.75c0-2.57-4.293-6.44-7.16-6.44-1.36 0-2.93-.74-3.49-1.64s-2.44-1.64-4.19-1.64c-1.75 0-3.18-.74-3.18-1.64s-1.474-1.63-3.28-1.63c-1.8 0-3.27-.74-3.27-1.64s-1.04-1.64-2.32-1.64-2.57-.62-2.866-1.39c-.77-1.97-15.75-10.08-18.63-10.08-1.32 0-2.4-.62-2.4-1.38s-2.58-2.77-5.73-4.47c-3.16-1.7-5.74-3.66-5.74-4.35s-1.48-1.26-3.28-1.26-3.28-.74-3.28-1.64-1.47-1.64-3.28-1.64c-1.8 0-3.27-.74-3.27-1.64s-1.67-1.64-3.7-1.64c-2.044 0-5.09-1.84-6.785-4.09-1.69-2.25-4.45-4.1-6.128-4.1s-3.05-.74-3.05-1.64c0-.9-1.48-1.64-3.28-1.64s-3.278-.735-3.278-1.636c0-.9-1.48-1.64-3.28-1.64s-3.28-.74-3.28-1.64c0-.9-.79-1.64-1.75-1.64s-2.86-1.1-4.217-2.454c-2.443-2.45-6.1-2.95-10.003-1.37zm-16.794 144.04c0 1.53 1.114 2.36 2.732 2.05 4.11-.8 4.674-4.62.682-4.62-2.013 0-3.414 1.06-3.414 2.58zm8.192-.12c0 1.35 1.106 2.46 2.458 2.46s2.458.74 2.458 1.64c0 .9 1.782 1.64 3.96 1.64s4.288.92 4.69 2.05c.402 1.13 1.29 1.53 1.97.9 1.672-1.55-3.175-6.22-6.458-6.22-1.444 0-3.05-1.1-3.57-2.45-.518-1.35-1.97-2.46-3.226-2.46s-2.28 1.11-2.28 2.46zm-15.792 3.28c-.518 1.36-2.34 2.46-4.045 2.46s-3.1.74-3.1 1.64c0 .9-1.25 1.64-2.78 1.64-2.29 0-2.4.36-.61 2.05 1.74 1.64 2.32 1.64 2.93 0 .41-1.12 2.17-2.05 3.89-2.05 1.73 0 3.14-.73 3.14-1.63s1.11-1.64 2.46-1.64c1.35 0 2.46-1.1 2.46-2.46s-.76-2.45-1.69-2.45c-.93 0-2.11 1.11-2.63 2.46zm-18.24 10.96c1.015 3.04 4.54 3.54 4.54.65 0-1.42-1.166-2.59-2.594-2.59-1.425 0-2.302.88-1.946 1.95zm60.622 0c1.014 3.04 4.54 3.54 4.54.65 0-1.42-1.167-2.59-2.595-2.59-1.425 0-2.302.88-1.946 1.95zm-67.55 3.79c0 1.35.737 2.46 1.638 2.46s1.638-1.1 1.638-2.46-.737-2.46-1.638-2.46-1.638 1.11-1.638 2.46zm73.728 0c0 1.35 1.106 2.46 2.458 2.46s2.458-1.1 2.458-2.46-1.106-2.46-2.458-2.46-2.458 1.11-2.458 2.46zm-80.87 1.96c-1.846 1.85-1.125 3.78 1.408 3.78 1.352 0 2.458-.69 2.458-1.54 0-2.06-2.558-3.54-3.867-2.23zm87.424 1.37c0 1.33 1.413 2.41 3.14 2.41 1.73 0 3.47.92 3.873 2.05.4 1.13 1.288 1.53 1.97.9 1.45-1.35-2.003-5.11-6.115-6.67-1.92-.73-2.867-.29-2.867 1.32zm-95.027 4.05c0 .9-1.29 1.66-2.867 1.69-3.987.08-9.155 4.28-7.85 6.4 1.587 2.57 4.164 2.13 4.164-.71 0-1.37 1.456-2.46 3.277-2.46 1.802 0 3.277-.74 3.277-1.64s1.106-1.64 2.458-1.64 2.458-.73 2.458-1.64-1.106-1.63-2.458-1.63-2.458.74-2.458 1.64zm108.134 4.05c0 1.47.96 2.04 2.458 1.46 1.352-.52 2.458-1.6 2.458-2.4s-1.106-1.46-2.458-1.46-2.458 1.08-2.458 2.41zm6.554 3.33c0 1.36 1.11 2.46 2.46 2.46s2.46-1.1 2.46-2.45-1.1-2.46-2.46-2.46-2.46 1.11-2.46 2.46zm-132.71 3.28c0 1.35.74 2.46 1.64 2.46s1.64-1.1 1.64-2.46-.73-2.46-1.64-2.46-1.64 1.11-1.64 2.46zm140.91 0c0 1.35.74 2.46 1.64 2.46s1.64-1.1 1.64-2.46-.74-2.46-1.64-2.46-1.63 1.11-1.63 2.46zm-149.1 4.1c0 .9 1.11 1.64 2.46 1.64s2.46-.73 2.46-1.63c0-.9-1.1-1.64-2.46-1.64s-2.46.73-2.46 1.63zm155.65 0c0 .9 1.11 1.64 2.46 1.64s2.46.74 2.46 1.64c0 .91 1.48 1.64 3.28 1.64s3.28 1.09 3.28 2.41c0 1.47.96 2.04 2.46 1.46 1.36-.51 2.46-1.6 2.46-2.4s-1.1-1.46-2.46-1.46-2.45-.74-2.45-1.64-1.47-1.63-3.28-1.63c-1.8 0-3.28-.74-3.28-1.64s-1.1-1.63-2.45-1.63-2.45.73-2.45 1.63zm-395.74 3.68c-.43 1.13-.59 77.99-.36 170.81l.43 168.75 3.92.55c2.64.37 5.11-.83 7.57-3.69 2.01-2.33 5.22-4.24 7.14-4.24s3.5-.74 3.5-1.64c0-.9 1.48-1.64 3.28-1.64s3.28-.73 3.28-1.64c0-.9 1-1.64 2.22-1.64s4.21-1.84 6.64-4.09c2.43-2.25 5.49-4.1 6.8-4.1 1.31 0 2.38-.73 2.38-1.64s1.68-1.64 3.74-1.64 4.8-1.47 6.1-3.27 3.68-3.27 5.28-3.27 2.92-1.1 2.92-2.46c0-1.53 1.55-2.45 4.1-2.45 2.25 0 4.1-.74 4.1-1.64s1.48-1.64 3.28-1.64 3.28-.73 3.28-1.64 1.11-1.64 2.46-1.64 2.46-.73 2.46-1.63 1.48-1.64 3.28-1.64 3.28-.74 3.28-1.64 1.12-1.64 2.51-1.64 2.93-1.1 3.45-2.46c.52-1.35 2.15-2.48 3.63-2.51 8.81-.17 8.43 5.18 8.43-116.86 0-110.23-.06-112.46-3.18-112.46-1.75 0-3.63-.74-4.19-1.64s-2.28-1.64-3.83-1.64c-1.55 0-3.88-1.48-5.18-3.28s-3.68-3.28-5.28-3.28-2.91-.68-2.91-1.52-1.6-2.04-3.56-2.66c-1.96-.62-5.04-2.51-6.86-4.2-1.81-1.69-4.64-3.08-6.27-3.08s-2.97-.74-2.97-1.64c0-.9-1.47-1.64-3.28-1.64s-3.28-.74-3.28-1.64c0-.9-1.06-1.64-2.37-1.64s-4.37-1.84-6.8-4.1-5.41-4.09-6.63-4.09c-1.22 0-2.22-.74-2.22-1.64s-1.84-1.64-4.1-1.64-4.09-.74-4.09-1.64-1.19-1.64-2.63-1.64-4.08-1.84-5.86-4.09-4.64-4.09-6.38-4.09-3.15-.73-3.15-1.63-1.47-1.64-3.28-1.64-3.28-.74-3.28-1.64c0-2.37-6.51-2.01-7.43.41zm233.54-.41c0 .9 1.11 1.64 2.46 1.64s2.46-.73 2.46-1.64c0-.9-1.1-1.63-2.45-1.63s-2.46.74-2.46 1.64zm394.9 1.57c-1.32 1.84-3.75 3.35-5.39 3.35-3.02 0-4.75 1.14-11.86 7.78-2.17 2.03-5.45 3.69-7.29 3.69s-3.35.74-3.35 1.64c0 .9-1.47 1.64-3.28 1.64s-3.28.74-3.28 1.64c0 .9-.93 1.64-2.06 1.64s-4.05 1.84-6.48 4.1c-2.43 2.25-5.55 4.09-6.94 4.09s-2.53.74-2.53 1.64c0 .9-1.84 1.64-4.09 1.64s-4.09.74-4.09 1.64c0 .9-.99 1.64-2.21 1.64s-4.21 1.85-6.64 4.1c-2.43 2.25-5.49 4.1-6.79 4.1s-2.37.74-2.37 1.64-1.47 1.64-3.27 1.64-3.27.74-3.27 1.64-1.1 1.64-2.45 1.64-2.46.65-2.46 1.45c0 .8-1.47 1.83-3.28 2.3-3.23.85-3.27 2.23-3.27 112.54 0 119.86-.24 116.37 8.07 116.37 1.93 0 3.4 1.06 3.4 2.46 0 1.35 1.31 2.46 2.91 2.46 1.61 0 3.98 1.47 5.28 3.28s4.05 3.28 6.1 3.28 3.74.74 3.74 1.64 1.48 1.64 3.28 1.64 3.27.73 3.27 1.64.79 1.64 1.76 1.64 2.79.92 4.04 2.05c5.68 5.09 7.34 6.14 9.7 6.14 1.39 0 2.53.74 2.53 1.64s1.57 1.64 3.49 1.64 4.69 1.31 6.15 2.91c3.72 4.08 11.08 8.56 14.06 8.56 1.38 0 2.51.74 2.51 1.64s1.47 1.64 3.28 1.64 3.27.74 3.27 1.64 1.11 1.64 2.46 1.64 2.46.74 2.46 1.64 1.48 1.64 3.28 1.64c1.88 0 3.28 1.1 3.28 2.57 0 1.9 1.37 2.43 5.33 2.04l5.33-.51V307.3l-4.92-.48c-3.44-.34-5.63.518-7.32 2.867zm-404.32 2.53c-2.77 3.15-2.58 5.75.41 5.75 1.35 0 2.46-1.1 2.46-2.46s1.15-2.46 2.56-2.46 2.1-.73 1.54-1.64c-1.42-2.3-4.54-1.93-6.96.82zM615 315.52c0 1.355 1.1 2.46 2.46 2.46s2.457-1.105 2.457-2.46-1.103-2.455-2.455-2.455-2.46 1.104-2.46 2.456zm-198.25 3.28c0 1.36.74 2.46 1.64 2.46s1.64-1.1 1.64-2.46c0-1.35-.737-2.45-1.638-2.45s-1.64 1.104-1.64 2.456zm206.44 0c0 1.36.74 2.46 1.64 2.46s1.637-1.1 1.637-2.46c0-1.35-.735-2.45-1.636-2.45s-1.64 1.104-1.64 2.456zm-214.632 4.09c0 .9 1.106 1.64 2.458 1.64s2.46-.73 2.46-1.64c0-.9-1.1-1.63-2.45-1.63s-2.46.735-2.46 1.636zm221.184 0c0 .9 1.104 1.64 2.46 1.64s2.454-.73 2.454-1.64c0-.9-1.1-1.63-2.45-1.63s-2.46.735-2.46 1.636zm-227.426 3.4c.33.97 1.29 1.76 2.15 1.76s1.82-.79 2.15-1.76c.32-.97-.64-1.76-2.142-1.76s-2.462.8-2.14 1.76zm233.98-.12c0 .9 1.11 1.64 2.46 1.64s2.46 1.25 2.46 2.79c0 2.08.47 2.313 1.867.923 1.39-1.39 1.21-2.51-.7-4.426-2.895-2.9-6.07-3.38-6.07-.922zm-242.48 4.09c0 1.35 1.11 2.46 2.46 2.46s2.46-1.11 2.46-2.46-1.103-2.46-2.46-2.46-2.453 1.11-2.453 2.46zm-7.112 4.24c-1.62 1.9-2.424 3.93-1.785 4.52s1.49.154 1.89-.97c.4-1.13 2.2-2.05 4-2.05s2.98-.877 2.63-1.95c-1.11-3.315-3.67-3.145-6.74.45zm261.07-.96c0 1.354 1.108 2.46 2.46 2.46s2.46-1.106 2.46-2.46-1.102-2.456-2.454-2.456-2.46 1.105-2.46 2.457zM375.79 340.9c0 .9 1.102 1.64 2.454 1.64s2.46-.736 2.46-1.637c0-.9-1.107-1.64-2.46-1.64s-2.457.735-2.457 1.64zm286.72 0c0 .9 1.102 1.64 2.454 1.64s2.46-.736 2.46-1.637c0-.9-1.107-1.64-2.46-1.64s-2.457.735-2.457 1.64zm-293.277 4.097c0 1.35.736 2.456 1.637 2.456s1.64-1.11 1.64-2.46-.737-2.46-1.638-2.46-1.638 1.105-1.638 2.46zm299.826-1.64c0 .45 1.47 2.293 3.27 4.095s3.64 3.277 4.09 3.277c1.67 0 .74-3.59-1.53-5.85s-5.85-3.2-5.85-1.53zm-308.84 4.22c-.9.88-3.42 3.06-5.59 4.842-2.17 1.78-3.36 3.79-2.64 4.46s1.63.29 2.04-.83c.4-1.13 1.77-2.05 3.05-2.05 1.27 0 2.32-.74 2.32-1.64s1.47-1.64 3.27-1.64c1.82 0 3.28-1.09 3.28-2.46 0-2.75-3.23-3.15-5.74-.7zm320.3 3.834c0 1.43 1.17 2.6 2.6 2.6 2.89 0 2.38-3.53-.65-4.54-1.07-.36-1.95.52-1.95 1.95zm-337.51 10.61c0 3.69.91 4.97 4.1 5.77 2.25.57 4.09 1.75 4.09 2.64 0 .89 1.11 1.61 2.46 1.61 3.66 0 2.98-2.42-1.64-5.89-2.26-1.69-4.1-4.37-4.1-5.96s-1.11-2.89-2.46-2.89c-1.62 0-2.46 1.62-2.46 4.74zm352.26-1.46c0 1.8-.74 3.28-1.64 3.28s-1.64 1.11-1.64 2.46c0 3.39 2.02 3.08 5.37-.84 3.47-4.06 3.66-8.17.36-8.17-1.37 0-2.46 1.46-2.46 3.28zm-11.88 9.97c-3.31 3.62-3.58 4.78-1.12 4.78 2.27 0 6.44-4.17 6.44-6.44 0-2.56-2.06-1.92-5.33 1.66zm-324.54.96c-1.89 1.89-1.2 3.83 1.36 3.83 1.35 0 2.46-1.1 2.46-2.46 0-2.55-1.94-3.25-3.82-1.36zm5.46 5.46c0 .9 1.1 1.64 2.46 1.64s2.45-.74 2.45-1.64c0-.9-1.11-1.64-2.46-1.64s-2.46.73-2.46 1.64zm309.65 0c0 .9 1.11 1.64 2.46 1.64s2.46-.74 2.46-1.64c0-.9-1.1-1.64-2.46-1.64s-2.46.73-2.46 1.64zm-301.47 2.44c0 1.41 5.59 7.39 6.91 7.39.7 0 1.27-1.1 1.27-2.45s-1.1-2.46-2.45-2.46-2.46-.74-2.46-1.64-.74-1.64-1.64-1.64c-.9 0-1.64.36-1.64.8zm293.27.84c0 .91 1.1 1.64 2.46 1.64s2.46-.73 2.46-1.64c0-.9-1.11-1.63-2.46-1.63s-2.46.74-2.46 1.64zm-335.46 2.73c-3.36 1.36-2.96 192.25.41 192.25 2.16 0 2.46-11.83 2.46-96.66 0-53.16-.19-96.61-.41-96.54s-1.33.51-2.46.96zm7.19 1.38c.52 1.35 1.91 2.46 3.09 2.46s2.47.93 2.87 2.05c.4 1.13 1.32 1.5 2.03.83s-.4-2.7-2.49-4.5c-4.49-3.89-6.83-4.24-5.52-.83zm319.67.65c-3.22 3.26-3.66 5.09-1.25 5.09 2.03 0 8.21-5.2 8.21-6.92 0-2.23-4-1.18-6.97 1.83zm44.1-2.01c-1.89 1.89-1.19 3.83 1.36 3.83 1.35 0 2.45-1.11 2.45-2.46 0-2.56-1.94-3.25-3.83-1.37zm-317.3 4.65c0 1.35.73 2.45 1.64 2.45s1.63-1.1 1.63-2.46-.74-2.46-1.64-2.46-1.64 1.11-1.64 2.46zm307.32 2.55c-2.79 2.81-2.84 3.18-.41 3.18 1.51 0 2.74-.74 2.74-1.64s1.11-1.64 2.46-1.64c1.35 0 2.46-.73 2.46-1.64 0-2.63-3.83-1.71-7.25 1.74zm-42.49-.6c-1.85 1.85-1.13 3.78 1.41 3.78 1.35 0 2.45-.69 2.45-1.54 0-2.07-2.56-3.55-3.87-2.24zm-299.24 3.09c0 2.89 3.52 2.39 4.54-.65.35-1.07-.52-1.95-1.95-1.95s-2.6 1.17-2.6 2.6zm40.96-1.55c0 1.57 5.44 5.39 7.78 5.45 1.12.03 2.05-.69 2.05-1.59s-1.11-1.64-2.46-1.64-2.46-.74-2.46-1.64-1.11-1.64-2.46-1.64-2.46.47-2.46 1.05zm-34.04 4.17c1.01 3.03 4.54 3.54 4.54.65 0-1.43-1.17-2.6-2.6-2.6-1.43 0-2.3.88-1.95 1.95zm284.7-.31c0 .9 1.1 1.64 2.46 1.64s2.46-.74 2.46-1.64c0-.9-1.11-1.64-2.46-1.64s-2.46.74-2.46 1.64zm40.96.82c0 1.5.79 2.47 1.76 2.14.97-.32 1.76-1.29 1.76-2.14s-.79-1.82-1.76-2.14c-.97-.32-1.76.65-1.76 2.15zm-318.47 1.98c-1.82 1.82-1.08 3.75 1.44 3.75 1.35 0 2.46.74 2.46 1.64s1.1 1.64 2.46 1.64c1.35 0 2.43-.55 2.4-1.23-.09-1.93-7.63-6.93-8.76-5.79zm38.3.48c0 .9 1.1 1.63 2.46 1.63s2.46-.74 2.46-1.64c0-.9-1.11-1.64-2.46-1.64s-2.46.74-2.46 1.64zm232.65 0c0 .9-1.11 1.63-2.46 1.63s-2.46 1.11-2.46 2.46 1.1 2.46 2.46 2.46 2.45-1.11 2.45-2.46.74-2.46 1.64-2.46 1.64-.73 1.64-1.63c0-.9-.74-1.64-1.64-1.64s-1.64.74-1.64 1.64zm39.91.82c-.52 1.35-2.02 2.45-3.35 2.45-3.11 0-7.84 4.73-6.23 6.22.68.63 1.57.23 1.97-.9.4-1.12 2.14-2.05 3.87-2.05s3.14-.73 3.14-1.63 1.11-1.64 2.46-1.64 2.46-1.11 2.46-2.46-.76-2.46-1.69-2.46c-.93 0-2.11 1.11-2.63 2.46zm-266.01 3.27c0 1.35 1.1 2.46 2.45 2.46s2.46-1.11 2.46-2.46-1.1-2.46-2.45-2.46-2.46 1.11-2.46 2.46zm9.27 2.06c-1.54 2.45 2.45 6.95 6.17 6.95 1.41 0 2.57.74 2.57 1.64s1.1 1.64 2.46 1.64 2.46-.74 2.46-1.64-1.11-1.64-2.46-1.64c-1.35 0-2.46-.74-2.46-1.64s-1.42-1.64-3.15-1.64c-1.74 0-3.42-1.29-3.73-2.87-.42-2.11-.91-2.33-1.86-.81zm205.35 1.22c0 1.35.74 2.45 1.64 2.45s1.64-1.1 1.64-2.45-.74-2.46-1.64-2.46-1.64 1.11-1.64 2.46zm-240.85 3.73c0 1.32 5.98 6.92 7.39 6.92 1.92 0 .55-3.93-2.07-5.91-3.27-2.48-5.33-2.87-5.33-1.01zm231.42.95c-4.27 2.12-4.84 4.33-1.11 4.33 2.48 0 7.25-3.7 7.25-5.62 0-1.26-1.73-.9-6.15 1.29zm42.56-.28c1.01 3.04 4.54 3.54 4.54.65 0-1.43-1.17-2.59-2.6-2.59s-2.3.88-1.95 1.95zm-6.93 2.89c0 .86-2.58 2.79-5.74 4.29-5.93 2.81-7.57 5.62-3.28 5.62 1.35 0 2.46-.74 2.46-1.64s1.47-1.64 3.27-1.64 3.27-.74 3.27-1.64 1.1-1.64 2.46-1.64 2.46-1.1 2.46-2.46-1.11-2.46-2.46-2.46-2.46.71-2.46 1.57zm-255.59 4.18c0 1.35.74 2.45 1.64 2.45s1.63-1.1 1.63-2.46-.74-2.46-1.64-2.46-1.64 1.11-1.64 2.46zm40.96 0c0 1.35.74 2.45 1.64 2.45s1.63-1.1 1.63-2.46-.74-2.46-1.64-2.46-1.64 1.11-1.64 2.46zm169.13-.52c1.01 3.04 4.54 3.54 4.54.65 0-1.43-1.17-2.59-2.6-2.59s-2.3.88-1.95 1.95zm-6.93 3.65c0 1.43 1.16 2.6 2.59 2.6 1.42 0 2.3-.87 1.95-1.94-1.02-3.03-4.54-3.54-4.54-.65zm-196.61.96c0 .9 1.1 1.64 2.45 1.64s2.46-.74 2.46-1.64c0-.9-1.11-1.64-2.46-1.64s-2.46.74-2.46 1.64zm43.82 1.96c1.98 1.98 4.07 3.12 4.65 2.54.58-.58-.08-2.2-1.48-3.59s-3.49-2.54-4.65-2.54c-1.29 0-.71 1.42 1.48 3.6zm-36.46 1.32c-.56.9.13 1.64 1.54 1.64s2.55 1.25 2.55 2.78c0 2.08.47 2.32 1.86.93 1.39-1.39 1.21-2.51-.7-4.42-2.99-2.99-3.88-3.15-5.25-.92zm182.68 0c0 .9-1.11 1.64-2.46 1.64s-2.46.74-2.46 1.64c0 2.38 3.14 2 5.85-.71 2.74-2.74 2.99-4.21.7-4.21-.9 0-1.64.74-1.64 1.64zm40.96.82c0 1.35.74 2.46 1.64 2.46s1.64-1.11 1.64-2.46-.74-2.46-1.64-2.46-1.64 1.1-1.64 2.46zm-178.58 2.46c0 .9 1.1 1.64 2.46 1.64s2.46-.73 2.46-1.64c0-.9-1.11-1.64-2.46-1.64s-2.46.74-2.46 1.64zm170.39.82c0 1.35-.74 2.45-1.64 2.45s-1.64.74-1.64 1.64c0 2.39 3.14 2.01 5.85-.7 3.04-3.04 2.99-5.85-.12-5.85-1.36 0-2.46 1.11-2.46 2.46zm-204.8 3.14c0 1.42 1.17 2.59 2.6 2.59 1.42 0 2.3-.87 1.94-1.94-1.02-3.04-4.54-3.54-4.54-.65zm41.34-.38c1.01 3.04 4.54 3.54 4.54.65 0-1.43-1.17-2.59-2.6-2.59-1.43 0-2.3.88-1.95 1.95zm119.22.46c0 1.47.96 2.04 2.46 1.46 1.35-.51 2.46-1.6 2.46-2.4s-1.11-1.46-2.46-1.46-2.46 1.08-2.46 2.41zm-110.64 2.6c-1.11 1.79 2.98 6.48 5.66 6.48 2.71 0 2.08-2.27-1.47-5.31-1.88-1.6-3.63-2.09-4.2-1.17zm104.08.74c0 1.35.73 2.46 1.64 2.46s1.64-1.11 1.64-2.46-.74-2.46-1.64-2.46-1.64 1.1-1.64 2.46zm-140.09 4.1c-.56.9.5 1.64 2.36 1.64 2.08 0 3.37 1.07 3.37 2.79 0 2.08.47 2.32 1.86.93 1.39-1.38 1.21-2.51-.7-4.42-2.95-2.94-5.44-3.28-6.89-.92zm130.66.81c-2.51 2.85-2.6 4.11-.3 4.11 1.84 0 6.44-4.01 6.44-5.62 0-1.8-4.12-.78-6.15 1.52zm42.18-.81c0 .9 1.1 1.64 2.46 1.64s2.45-.74 2.45-1.64c0-.9-1.11-1.64-2.46-1.64s-2.46.73-2.46 1.64zm-127.8 3.28c0 .9 1.1 1.64 2.45 1.64s2.46-.73 2.46-1.64c0-.9-1.11-1.64-2.46-1.64s-2.46.73-2.46 1.63zm119.19 1.47c-1.58 1.6-2.38 3.4-1.78 4 1.88 1.88 3.82 1.19 3.82-1.37 0-1.35 1.11-2.45 2.46-2.45s2.46-.74 2.46-1.64c0-2.55-3.79-1.75-6.96 1.46zM444.5 446.6c0 1.37 1.45 2.46 3.27 2.46 1.8 0 3.27.735 3.27 1.64s1.11 1.63 2.46 1.63c1.35 0 2.46.74 2.46 1.64s1.475 1.64 3.277 1.64 3.275 1.08 3.275 2.406c0 1.463.96 2.04 2.46 1.46 1.35-.52 2.45-1.61 2.45-2.41s-1.11-1.47-2.46-1.47-2.46-.74-2.46-1.64-1.475-1.64-3.277-1.64-3.28-.68-3.28-1.517c0-1.24-8.877-6.67-10.9-6.67-.31 0-.57 1.11-.57 2.46zm40.96-1.57c0 2.25 6.49 7.535 8.06 6.564 2.87-1.78 2.01-4.17-1.52-4.17-1.8 0-3.28-.73-3.28-1.63s-.73-1.64-1.633-1.64c-.9 0-1.64.4-1.64.886zm67.17.75c0 .902 1.11 1.64 2.46 1.64s2.46-.738 2.46-1.64c0-.9-1.11-1.637-2.46-1.637s-2.46.734-2.46 1.64zm-6.55 4.1c0 1.35 1.1 2.455 2.45 2.455s2.46-1.1 2.46-2.452c0-1.35-1.105-2.46-2.46-2.46s-2.455 1.11-2.455 2.46zm42.01-1.32c-1.85 1.84-1.13 3.775 1.4 3.775 1.354 0 2.46-.69 2.46-1.54 0-2.062-2.56-3.54-3.866-2.232zm-91.67 3.185c-1.31 1.31.17 3.87 2.235 3.87.85 0 1.54-1.103 1.54-2.46 0-2.53-1.93-3.25-3.78-1.41zm41.05 2.877c-1.577 1.19-2.867 2.64-2.867 3.22 0 1.87 3.45 1.11 5.85-1.29 4.34-4.34 2.1-5.79-2.98-1.93zm-33.996 2.63c0 .9 1.105 1.64 2.46 1.64s2.455-.74 2.455-1.64c0-.9-1.11-1.64-2.46-1.64s-2.46.73-2.46 1.63zm68.08.87c-2.425 1.83-2.73 2.87-1.28 4.32 1.446 1.44 2.155 1.25 2.95-.83.58-1.5 2.08-2.73 3.333-2.73s2.28-.737 2.28-1.64c0-2.355-3.58-1.923-7.287.88zm-102.49 3.22c0 1.35 1.11 2.45 2.46 2.45s2.46-1.104 2.46-2.456-1.1-2.46-2.45-2.46-2.46 1.1-2.46 2.46zm44.48 1.61c4.295 4.52 11.23 5.55 11.23 1.66 0-1.64-1.64-2.46-4.914-2.46-2.7 0-4.914-.736-4.914-1.637s-1.18-1.64-2.63-1.64c-2.08 0-1.83.84 1.23 4.063zm14.51-2.43c0 .9 1.1 1.63 2.45 1.63s2.49-.75 2.49-1.65-1.106-1.64-2.458-1.64-2.46.738-2.46 1.64zm-50.79 3.39c0 .963 1.05 2.81 2.34 4.09 2.26 2.26 5.85 3.197 5.85 1.52 0-.45-1.48-2.292-3.28-4.094-3.7-3.7-4.92-4.073-4.92-1.522zm85.6-.67c-2.85 1.15-2.56 3.83.41 3.83 1.36 0 2.46-1.11 2.46-2.46s-.18-2.4-.41-2.33c-.22.07-1.33.5-2.46.955zm-8.6 5.47c0 .9-1.1 1.633-2.44 1.633-3.14 0-9.11 5.09-8.03 6.84 1.38 2.23 3.92 1.51 3.92-1.11 0-1.367 1.456-2.46 3.28-2.46 1.8 0 3.28-.74 3.28-1.64s1.102-1.64 2.46-1.64c1.35 0 2.46-.736 2.46-1.64s-1.11-1.64-2.46-1.64-2.46.74-2.46 1.64zm-58.98 7.51c0 2.89 3.526 2.383 4.54-.65.355-1.07-.52-1.95-1.95-1.95s-2.59 1.17-2.59 2.596zm6.55 3.134c0 1.35 1.106 2.46 2.46 2.46s2.46.734 2.46 1.635c0 .9.733 1.64 1.634 1.64 2.386 0 2.01-3.14-.7-5.85-3.04-3.04-5.85-2.99-5.85.12zm34.41 0c0 1.35 1.103 2.46 2.46 2.46s2.46-1.11 2.46-2.46-1.11-2.46-2.46-2.46-2.46 1.11-2.46 2.46zm-7.2 8.325c-1.3 3.39-1.3 179.85 0 183.24.59 1.54 2.92 2.59 5.733 2.59 5.41 0 6.37-2.47 1.46-3.75-3.228-.84-3.277-2.23-3.277-92.76 0-83.79-.62-97.91-3.92-89.31zm177.59 89.16c0 .9-1.47 1.64-3.278 1.64-3.716 0-4.414 2.49-1.06 3.78 1.22.47 3.43-.56 4.913-2.3 3.11-3.63 3.36-4.75 1.06-4.75-.9 0-1.64.74-1.64 1.64zm-370.28 4.24c0 2.89 3.53 2.38 4.54-.65.36-1.07-.52-1.95-1.94-1.95s-2.598 1.17-2.598 2.59zm7.69 1.73c-1.308 1.31.17 3.86 2.24 3.86.85 0 1.54-1.1 1.54-2.46 0-2.53-1.93-3.26-3.78-1.41zm352.17.09c-1.84 1.84-1.12 3.77 1.41 3.77 1.35 0 2.46-.69 2.46-1.54 0-2.07-2.56-3.54-3.87-2.24zm-338.56 7.99c0 1.94 4.79 5.61 7.31 5.61 1.44 0 3.05 1.11 3.57 2.46.52 1.35 1.97 2.46 3.222 2.46s2.28-1.1 2.28-2.46-1.106-2.46-2.46-2.46-2.46-.73-2.46-1.63c0-.9-1.475-1.64-3.28-1.64s-3.27-.73-3.27-1.64c0-.9-1.107-1.64-2.46-1.64s-2.46.42-2.46.94zm322.77.7c0 .9 1.103 1.64 2.46 1.64s2.453-.74 2.453-1.64c0-.9-1.106-1.64-2.458-1.64s-2.46.74-2.46 1.64zm-6.557 4.23c0 1.43.88 2.3 1.95 1.95 3.03-1.02 3.54-4.54.65-4.54-1.43 0-2.6 1.16-2.6 2.59zm-6.55 3.04c0 1.46-1.4 2.56-3.28 2.56-1.8 0-3.275.74-3.275 1.64 0 2.71 4.21 1.85 7.22-1.48 1.84-2.04 2.212-3.49 1.07-4.19-.96-.59-1.74.07-1.74 1.48zm-290.524 2c-1.888 1.89-1.196 3.83 1.362 3.83 1.35 0 2.456-1.11 2.456-2.46 0-2.56-1.93-3.25-3.82-1.37zm-55.16 2.19c0 .9-1.478 1.64-3.28 1.64s-3.276.65-3.276 1.45c0 .8-2.58 2.68-5.73 4.17-3.16 1.5-5.74 3.42-5.74 4.28 0 .86-1.68 1.56-3.733 1.56s-4.8 1.48-6.1 3.28-3.67 3.28-5.275 3.28-2.92.74-2.92 1.64-1.5 1.64-3.33 1.64-3.76 1.11-4.28 2.46c-.52 1.35-2.34 2.46-4.04 2.46s-3.1.74-3.1 1.64c0 .9-1.11 1.64-2.46 1.64s-2.46.74-2.46 1.64c0 .9-1.47 1.64-3.28 1.64s-3.28.74-3.28 1.64c0 .9-1.48 1.64-3.28 1.64s-3.28.69-3.28 1.53-1.66 2.05-3.68 2.7c-2.03.64-4.88 2.53-6.34 4.21-1.46 1.67-3.81 3.04-5.23 3.04-1.42 0-3.03.73-3.59 1.64s-2.13 1.64-3.49 1.64c-3.99 0-7.16 4.29-7.16 9.71 0 3.94.71 5.03 3.28 5.03 1.8 0 3.27.74 3.27 1.64s1.57 1.64 3.49 1.64 4.69 1.31 6.14 2.91c3.71 4.08 11.07 8.56 14.06 8.56 1.38 0 2.51.74 2.51 1.64s1.48 1.64 3.28 1.64 3.28.74 3.28 1.64 1.84 1.64 4.1 1.64 4.09.79 4.09 1.75c0 2.61 4.31 6.44 7.26 6.44 1.41 0 2.57.74 2.57 1.64s1.84 1.64 4.1 1.64 4.09.74 4.09 1.64 1.48 1.64 3.28 1.64 3.27.74 3.27 1.64.77 1.64 1.71 1.64c1.61 0 3.46 1.28 8.88 6.15 1.26 1.13 3.44 2.05 4.86 2.05 1.41 0 2.57.74 2.57 1.64s1.57 1.63 3.49 1.63 4.69 1.37 6.15 3.05c1.46 1.67 4.31 3.56 6.34 4.2 2.03.64 3.69 1.85 3.69 2.69s1.47 1.53 3.27 1.53 3.27.74 3.27 1.64 1.48 1.64 3.28 1.64 3.27.74 3.27 1.64 1.7 1.63 3.75 1.63c2.053 0 4.82 1.51 6.143 3.36 2.57 3.57 10.47 8.11 14.13 8.11 1.21 0 2.205.73 2.205 1.64s1.47 1.63 3.277 1.63 3.27.74 3.27 1.64.76 1.64 1.7 1.64c1.6 0 3.46 1.29 8.88 6.15 1.25 1.13 3.4 2.05 4.76 2.05s2.93.74 3.49 1.64 2.28 1.64 3.83 1.64c1.55 0 3.88 1.48 5.18 3.28s4.04 3.28 6.1 3.28c2.22 0 3.73.99 3.73 2.46 0 1.37 1.45 2.46 3.27 2.46 1.8 0 3.28.74 3.28 1.64s1.43 1.64 3.18 1.64 3.63.74 4.19 1.64c.56.9 2.11 1.64 3.45 1.64s4.28 1.84 6.53 4.098 5.17 4.1 6.48 4.1c1.31 0 2.38.73 2.38 1.63s1.47 1.63 3.27 1.63 3.28.74 3.28 1.64 1.47 1.64 3.275 1.64 3.28.737 3.28 1.64 1.1 1.64 2.46 1.64 2.45.734 2.45 1.635 1.392 1.64 3.1 1.64 3.53 1.1 4.043 2.45c.52 1.35 2.44 2.458 4.27 2.458s3.33.74 3.33 1.64c0 .9 1.14 1.64 2.53 1.64s4.11 1.47 6.04 3.28c1.94 1.8 4.78 3.28 6.31 3.28s3.22 1.1 3.74 2.45 2.81 2.46 5.09 2.46H510V762c0-64.44-.055-65.537-3.28-65.537-1.82 0-3.275-1.093-3.275-2.46 0-1.35-1.11-2.46-2.46-2.46s-2.46-.733-2.46-1.634c0-.9-1.48-1.64-3.28-1.64s-3.28-.74-3.28-1.64c0-.9-1.47-1.64-3.27-1.64s-3.28-.74-3.28-1.64c0-.9-1.76-1.64-3.92-1.64s-4.35-1.1-4.86-2.45c-.52-1.35-2.08-2.46-3.46-2.46s-2.51-.74-2.51-1.64c0-.9-1.11-1.64-2.46-1.64s-2.46-.73-2.46-1.64c0-.9-1.48-1.63-3.28-1.63s-3.28-.74-3.28-1.64c0-.9-1.47-1.64-3.278-1.64s-3.28-.74-3.28-1.64c0-.9-1.84-1.64-4.09-1.64-2.55 0-4.09-.93-4.09-2.46 0-1.37-1.46-2.46-3.28-2.46-1.8 0-3.28-.74-3.28-1.64s-1.68-1.64-3.74-1.64c-2.057 0-4.8-1.48-6.1-3.28s-3.677-3.28-5.28-3.28c-1.6 0-2.916-.72-2.916-1.61 0-.88-1.84-2.07-4.1-2.63s-4.09-1.69-4.09-2.49c0-.8-1.47-1.46-3.28-1.46s-3.27-.74-3.27-1.64c0-.9-1.68-1.64-3.74-1.64s-4.8-1.48-6.1-3.28-3.59-3.28-5.1-3.28c-1.51 0-3.17-1.1-3.68-2.46-.52-1.35-2.44-2.46-4.27-2.46s-3.33-.73-3.33-1.63c0-.9-1.48-1.64-3.28-1.64s-3.28-.74-3.28-1.64c0-.9-1.85-1.64-4.1-1.64s-4.1-.74-4.1-1.64c0-.9-1.18-1.64-2.63-1.64s-4.08-1.84-5.85-4.1-4.64-4.1-6.38-4.1-3.16-.74-3.16-1.64-1.47-1.64-3.28-1.64c-1.8 0-3.28-.73-3.28-1.64s-4.05-1.64-9.01-1.64c-4.95 0-9.01.74-9.01 1.64zm381.744 0c0 .9-1.475 1.64-3.277 1.64s-3.28.74-3.28 1.64c0 .9-1.04 1.64-2.32 1.64-2.92 0-12.396 5.32-12.41 6.97-.006.68-1.48 1.23-3.29 1.23s-3.27.74-3.27 1.64c0 .9-1.11 1.64-2.46 1.64s-2.46.74-2.46 1.64c0 .9-1.476 1.64-3.28 1.64s-3.28.74-3.28 1.64c0 .9-1.5 1.64-3.33 1.64s-3.75 1.1-4.27 2.46c-.52 1.35-2.34 2.45-4.046 2.45s-3.1.74-3.1 1.64c0 .9-1.48 1.64-3.28 1.64s-3.28.74-3.28 1.64c0 .9-1.11 1.64-2.46 1.64s-2.46.74-2.46 1.64c0 .9-1.478 1.64-3.28 1.64s-3.278.74-3.278 1.64c0 .9-1.5 1.64-3.33 1.64s-3.75 1.11-4.27 2.46c-.52 1.35-2.34 2.46-4.05 2.46s-3.1.74-3.1 1.64c0 .9-1.04 1.64-2.307 1.64-3.87 0-15.72 7.03-15.72 9.32 0 1.21-1.8 2.16-4.1 2.16-2.25 0-4.1.74-4.1 1.64s-1.48 1.64-3.28 1.64-3.28.74-3.28 1.64-1.04 1.64-2.3 1.64c-3.87 0-15.72 7.02-15.72 9.31 0 1.2-1.8 2.15-4.1 2.15-2.25 0-4.1.74-4.1 1.64s-1.48 1.64-3.28 1.64-3.28.74-3.28 1.64-1.02 1.64-2.27 1.64c-3.49 0-9.7 3.63-14.6 8.53l-4.43 4.43v62.22c0 60.79.07 62.25 3.28 63.27 3.82 1.21 9.83-.36 9.83-2.57 0-.84 1.1-1.53 2.46-1.53s2.45-.74 2.45-1.64c0-.9 1.48-1.64 3.28-1.64s3.28-.74 3.28-1.64c0-.9 1.47-1.64 3.27-1.64s3.28-.74 3.28-1.64c0-.9 1.37-1.64 3.04-1.64s4.43-1.84 6.12-4.09c1.7-2.26 4.74-4.1 6.79-4.1 2.04 0 3.71-.74 3.71-1.64s1.48-1.63 3.28-1.63 3.28-.74 3.28-1.64 1.47-1.64 3.27-1.64 3.28-.57 3.28-1.26 2.58-2.65 5.73-4.35 5.74-3.71 5.74-4.47 1.43-1.38 3.18-1.38 3.63-.73 4.19-1.63c.56-.9 2.13-1.64 3.49-1.64 1.36 0 3.51-.93 4.76-2.05 5.42-4.86 7.28-6.15 8.88-6.15.94 0 1.71-.73 1.71-1.63s1.48-1.64 3.28-1.64 3.27-.74 3.27-1.64 1.04-1.64 2.3-1.64c3.87 0 15.72-7.02 15.72-9.31 0-1.21 1.8-2.16 4.1-2.16 2.25 0 4.09-.74 4.09-1.64s1.47-1.64 3.27-1.64 3.273-.73 3.273-1.64 1.47-1.63 3.274-1.63 3.28-.74 3.28-1.64 1.106-1.64 2.46-1.64 2.456-1.1 2.456-2.46c0-1.36 1.458-2.46 3.28-2.46 1.8 0 3.28-.73 3.28-1.63s1.84-1.64 4.09-1.64 4.1-.74 4.1-1.64 1.47-1.64 3.275-1.64 3.28-.73 3.28-1.64 1-1.64 2.22-1.64 4.21-1.84 6.64-4.09c2.43-2.255 5.49-4.1 6.793-4.1 1.31 0 2.37-.74 2.37-1.64s1.84-1.64 4.1-1.64 4.094-.556 4.094-1.24c0-.68 2.21-2.214 4.91-3.41 2.7-1.194 4.915-3.22 4.915-4.49 0-1.38 1.65-2.32 4.1-2.32 2.25 0 4.096-.73 4.096-1.63s1.473-1.64 3.275-1.64 3.28-.735 3.28-1.64 1.477-1.64 3.28-1.64c1.806 0 3.28-.73 3.28-1.64s1.107-1.64 2.46-1.64 2.455-.73 2.455-1.63 1.47-1.64 3.27-1.64c1.82 0 3.28-1.097 3.28-2.46 0-1.53 1.543-2.46 4.09-2.46 2.26 0 4.1-.74 4.1-1.64s1.31-1.64 2.91-1.64c1.61 0 3.98-1.47 5.28-3.275s4.045-3.28 6.1-3.28c2.23 0 3.735-.99 3.735-2.46 0-1.366 1.46-2.46 3.28-2.46 1.8 0 3.278-.73 3.278-1.63s1.85-1.64 4.1-1.64 4.09-.74 4.09-1.64 1.47-1.64 3.28-1.64c2.65 0 3.28-1.09 3.28-5.74s-.63-5.73-3.28-5.73c-1.8 0-3.28-.74-3.28-1.64s-1.11-1.64-2.46-1.64c-1.35 0-2.46-.74-2.46-1.64s-1.48-1.64-3.28-1.64-3.28-.74-3.28-1.64-1.07-1.64-2.376-1.64c-1.3 0-4.36-1.84-6.79-4.096s-5.41-4.096-6.64-4.096c-1.22 0-2.21-.74-2.21-1.64s-1.43-1.64-3.18-1.64-3.64-.733-4.19-1.64c-.56-.9-2.11-1.63-3.45-1.63s-4.28-1.847-6.53-4.1-5.17-4.09-6.48-4.09c-1.31 0-2.385-.736-2.385-1.64s-1.47-1.64-3.27-1.64-3.274-.73-3.274-1.64-1.476-1.63-3.278-1.63-3.28-.74-3.28-1.64-.77-1.64-1.71-1.64c-1.6 0-3.46-1.28-8.88-6.14-1.25-1.13-3.81-2.05-5.67-2.05s-3.39-.74-3.39-1.64-1.47-1.634-3.275-1.634-3.28-.74-3.28-1.64-3.32-1.64-7.377-1.64-7.37.736-7.37 1.64zm-49.15 3.28c0 .9 1.104 1.64 2.46 1.64s2.46-.73 2.46-1.63c0-.9-1.11-1.63-2.46-1.63s-2.46.73-2.46 1.63zm-263.78 3.28c0 .9 1.11 1.64 2.46 1.64s2.46-.74 2.46-1.64c0-.9-1.11-1.64-2.46-1.64s-2.46.74-2.46 1.64zm257.23 0c0 .9 1.105 1.64 2.46 1.64s2.46-.74 2.46-1.64c0-.9-1.11-1.64-2.46-1.64s-2.46.74-2.46 1.64zM397 612.51c0 2.82 6.934 7.113 9.573 5.923 2.27-1.02 2.114-1.33-.97-1.87-2.03-.36-3.688-1.7-3.688-2.99 0-1.29-1.107-2.35-2.46-2.35s-2.46.57-2.46 1.28zm244.12 1.32c0 1.422.88 2.3 1.95 1.943 3.03-1.01 3.54-4.54.644-4.54-1.428 0-2.596 1.17-2.596 2.6zm-7.1 3.03c-.546 1.41-2.487 2.57-4.32 2.57s-3.322.73-3.322 1.632c0 .9-1.11 1.64-2.46 1.64s-2.46.73-2.46 1.63c0 .91 1.1 1.64 2.45 1.64s2.46-.73 2.46-1.64c0-.9 1.29-1.66 2.86-1.69 4.52-.08 9.58-4.54 7.51-6.61-1.23-1.23-2.04-.99-2.73.82zm-225.52 4.19c0 .9 1.104 1.64 2.456 1.64s2.46-.74 2.46-1.64c0-.9-1.106-1.64-2.458-1.64s-2.457.735-2.457 1.636zm15.06 6.68c.32.97 1.285 1.76 2.14 1.76s1.82-.8 2.146-1.76c.32-.97-.646-1.76-2.147-1.76s-2.47.79-2.15 1.76zm191.69 0c.32.97 1.284 1.76 2.14 1.76s1.82-.8 2.144-1.76c.32-.97-.642-1.76-2.143-1.76s-2.46.79-2.14 1.76zm-183.76 2.75c.11 2.62 4.535 6.96 7.09 6.96 1.48 0 2.688.74 2.688 1.64s1.48 1.64 3.28 1.64 3.28-.74 3.28-1.64-1.47-1.64-3.274-1.64-3.275-.74-3.275-1.64-1.47-1.64-3.27-1.64c-1.82 0-3.28-1.09-3.28-2.46 0-1.355-.74-2.46-1.64-2.46s-1.62.55-1.59 1.23zm176.895 1.23c0 1.5.792 2.46 1.76 2.14.97-.32 1.76-1.29 1.76-2.14s-.79-1.82-1.76-2.15c-.97-.328-1.76.64-1.76 2.14zm-7.144 1.95c-1.84 1.85-1.12 3.78 1.41 3.78 1.35 0 2.46-.69 2.46-1.54 0-2.06-2.56-3.54-3.87-2.23zm-7.6 5.42c0 .9-1.1 1.64-2.46 1.64s-2.45.74-2.45 1.64c0 2.63 3.14 1.89 6.93-1.64 2.99-2.78 3.1-3.28.75-3.28-1.52 0-2.76.74-2.76 1.64zm-144.18 3.28c0 .9 1.11 1.64 2.46 1.64s2.46-.74 2.46-1.64c0-.9-1.1-1.64-2.46-1.64s-2.46.73-2.46 1.64zm6.56 4.09c0 1.35 1.11 2.46 2.46 2.46s2.46-1.11 2.46-2.46c0-1.35-1.1-2.46-2.46-2.46s-2.46 1.11-2.46 2.46zm126.16 0c0 1.35 1.11 2.46 2.46 2.46s2.46-1.11 2.46-2.46c0-1.35-1.11-2.46-2.46-2.46s-2.46 1.11-2.46 2.46zm-117.96 3.28c0 1.355.74 2.46 1.64 2.46s1.64-1.105 1.64-2.46-.73-2.455-1.64-2.455-1.63 1.106-1.63 2.46zm111.41 0c0 1.5.79 2.47 1.76 2.15.97-.327 1.76-1.29 1.76-2.147s-.79-1.82-1.76-2.144c-.97-.32-1.76.64-1.76 2.14zm-104.85 3.4c0 .52 1.05 1.99 2.34 3.28 2.68 2.686 7.49 3.136 7.49.7 0-.9-1.48-1.635-3.28-1.635s-3.27-.737-3.27-1.64c0-.9-.73-1.636-1.63-1.636s-1.64.42-1.64.93zm96.66.704c0 .9 1.11 1.636 2.46 1.636s2.46-.74 2.46-1.64c0-.9-1.1-1.64-2.45-1.64s-2.46.74-2.46 1.64zm-6.55 3.275c0 .9-1.47 1.64-3.28 1.64s-3.27.73-3.27 1.63c0 .9-1.16 1.64-2.59 1.64-1.42 0-2.3.88-1.95 1.95 1.01 3.04 4.54 3.54 4.54.65 0-1.51 1.38-2.6 3.28-2.6 1.8 0 3.28-.74 3.28-1.64s1.1-1.64 2.46-1.64c1.35 0 2.45-.74 2.45-1.64s-1.1-1.64-2.45-1.64-2.46.73-2.46 1.64zm-78.64 3.27c0 .9 1.11 1.64 2.46 1.64s2.45-.74 2.45-1.64c0-.9-1.1-1.63-2.45-1.63s-2.46.73-2.46 1.63zm6.56 4.1c0 1.35 1.11 2.46 2.46 2.46s2.46-1.11 2.46-2.46-1.1-2.46-2.46-2.46-2.46 1.11-2.46 2.46zm8.19 3.28c0 1.35.74 2.46 1.64 2.46s1.64-1.11 1.64-2.46-.74-2.46-1.64-2.46-1.64 1.1-1.64 2.46zm45.88 0c0 1.5.8 2.46 1.76 2.14.97-.33 1.76-1.29 1.76-2.15s-.79-1.82-1.76-2.14c-.97-.32-1.76.64-1.76 2.15zm-39.32 4.09c0 .9 1.48 1.64 3.28 1.64s3.28-.74 3.28-1.64c0-.9-1.47-1.64-3.28-1.64s-3.27.74-3.27 1.64z"/>
</svg>
