<?xml version="1.0" standalone="no"?><!DOCTYPE svg PUBLIC "-//W3C//DTD SVG 1.1//EN" "http://www.w3.org/Graphics/SVG/1.1/DTD/svg11.dtd"><svg t="1497341349509" class="icon" style="" viewBox="0 0 1024 1024" version="1.1" xmlns="http://www.w3.org/2000/svg" p-id="2331" xmlns:xlink="http://www.w3.org/1999/xlink" width="200" height="200"><defs><style type="text/css"></style></defs><path d="M512 119.466667c130.133333 0 234.666667 104.533333 234.666667 234.666667s-104.533333 234.666667-234.666667 234.666667-234.666667-104.533333-234.666667-234.666667S381.866667 119.466667 512 119.466667M512 55.466667c-164.266667 0-298.666667 134.4-298.666667 298.666667s134.4 298.666667 298.666667 298.666667 298.666667-134.4 298.666667-298.666667S676.266667 55.466667 512 55.466667L512 55.466667z" fill="#1296db" p-id="2332"></path><path d="M917.333333 968.533333c-10.666667 0-19.2-4.266667-25.6-12.8C804.266667 832 663.466667 759.466667 512 759.466667c-151.466667 0-292.266667 72.533333-379.733333 196.266667-10.666667 14.933333-29.866667 17.066667-44.8 8.533333-14.933333-10.666667-17.066667-29.866667-8.533333-44.8C179.2 778.666667 341.333333 695.466667 512 695.466667s332.8 83.2 433.066667 224c10.666667 14.933333 6.4 34.133333-8.533333 44.8C930.133333 968.533333 923.733333 968.533333 917.333333 968.533333z" fill="#1296db" p-id="2333"></path></svg>